<?xml version="1.0" encoding="utf-8"?>
<!-- Generator: Adobe Illustrator 23.0.1, SVG Export Plug-In . SVG Version: 6.00 Build 0)  -->
<svg version="1.1" id="Capa_1" xmlns="http://www.w3.org/2000/svg" xmlns:xlink="http://www.w3.org/1999/xlink" x="0px" y="0px"
	 viewBox="0 0 730 480" style="enable-background:new 0 0 730 480;" xml:space="preserve">
<style type="text/css">
	.st0{opacity:0.1;fill:#F8F8F8;}
	.st1{fill:#C0C0C0;}
</style>
<rect class="st0" width="730" height="480"/>
<g>
	<g transform="translate(0.000000,511.000000) scale(0.100000,-0.100000)">
		<path class="st1" d="M3588,2737.9c-374.3-374.6-444.4-445.3-443.1-450c2-7.4,46.1-50.1,51.8-50.1s893.6,887,893.6,892.7
			s-47.3,51.8-53,51.8C4034,3182.2,3880.4,3030.3,3588,2737.9z"/>
		<path class="st1" d="M4148.2,3043.1c-3.9-1.7-21.5-18.7-38.7-37.5c-17.3-19-58.2-61.4-90.5-94.7l-59.2-60.4l-0.2,50.5v50.5
			l-252.8-252.7c-139.1-139.1-252.8-253.5-252.8-254.5c0-3,439.9-2.5,457.2,0.5c18.5,3,31.3,11.6,40.2,26.4l6.9,11.8l1.2,76.2
			l1.2,76l81.4-84.1c44.6-46.4,83.3-87.5,85.8-91.5c6.9-10.9,23.4-19.7,36.5-19.7c11.1,0,34,9.1,42.2,16.5c4.2,3.7,4.4,20.5,4.4,287
			v283.1l-7.2,4.9C4184.2,3045.6,4163.5,3049.8,4148.2,3043.1z"/>
		<path class="st1" d="M3119.2,3036.5c-5.9-3-13.3-8.9-16.5-13.1c-14.3-18.7-13.6-3.7-13.6-281.1v-255l6.9-13.1
			c5.2-10.4,9.9-15,20.2-21.2l13.3-8.1h61.9h61.7l298.4,298.4l298.4,298.4h-360h-360L3119.2,3036.5z M3300.2,2921.3
			c26.4-13.6,39.7-41.4,33-69.3c-13.3-56.2-90.5-63.9-114.9-11.3c-15.3,32.5,0.7,71.3,34.8,83.8
			C3265.9,2929.2,3287.6,2927.7,3300.2,2921.3z"/>
	</g>
</g>
</svg>
