<?xml version="1.0" encoding="utf-8"?>
<!-- Generator: Adobe Illustrator 23.0.1, SVG Export Plug-In . SVG Version: 6.00 Build 0)  -->
<svg version="1.1" id="Capa_1" xmlns="http://www.w3.org/2000/svg" xmlns:xlink="http://www.w3.org/1999/xlink" x="0px" y="0px"
	 viewBox="0 0 300 300" style="enable-background:new 0 0 300 300;" xml:space="preserve">
<style type="text/css">
	.st0{opacity:0.1;fill:#F8F8F8;}
	.st1{fill:#C0C0C0;}
</style>
<rect x="0.3" class="st0" width="300" height="300"/>
<g>
	<path class="st1" d="M200,104.9h-99.6c-3.5,0-6.3,2.8-6.3,6.3v77.4c0,3.5,2.8,6.3,6.3,6.3H200c3.5,0,6.3-2.8,6.3-6.3v-77.4
		C206.3,107.8,203.5,104.9,200,104.9z M193.7,117.6v57L179.2,157c-0.5-0.6-1.5-0.8-2.2-0.3L160.3,169l-28.9-28.1
		c-0.3-0.3-0.8-0.5-1.3-0.4c-0.5,0-0.9,0.3-1.1,0.7L106.8,173v-55.4H193.7z M155.8,141.3c0-5.7,4.6-10.3,10.3-10.3
		s10.3,4.6,10.3,10.3s-4.6,10.3-10.3,10.3S155.8,146.9,155.8,141.3z"/>
</g>
</svg>
