<?xml version="1.0" encoding="utf-8"?>
<!-- Generator: Adobe Illustrator 23.0.1, SVG Export Plug-In . SVG Version: 6.00 Build 0)  -->
<svg version="1.1" id="Capa_1" xmlns="http://www.w3.org/2000/svg" xmlns:xlink="http://www.w3.org/1999/xlink" x="0px" y="0px"
	 viewBox="0 0 1442.3 748" style="enable-background:new 0 0 1442.3 748;" xml:space="preserve">
<style type="text/css">
	.st0{fill:#F2F2F2;}
	.st1{fill:#CCCCCC;}
	.st2{fill:#3F3D56;}
	.st3{fill:#FFFFFF;}
	.st4{fill:#FF003D;}
	.st5{opacity:0.1;enable-background:new    ;}
	.st6{fill:#A0616A;}
	.st7{fill:#2F2E41;}
</style>
<title>cancel</title>
<path class="st0" d="M741.5,434.1c0-68.8-51.1-231.8-114.3-231.8S512.8,365.6,512.8,434.1c0,68.8,51.3,124.5,114.6,124.5
	C690.4,558.6,741.5,503.1,741.5,434.1L741.5,434.1z"/>
<path class="st1" d="M627.1,687.8c-0.8,0-1.3-0.5-1.3-1.3V428.4c0-0.8,0.5-1.3,1.3-1.3s1.3,0.5,1.3,1.3v258.4
	C628.2,687.3,627.7,687.8,627.1,687.8L627.1,687.8z"/>
<path class="st1" d="M627.1,476.8c-0.3,0-0.8-0.3-1-0.5l-63.6-73.5c-0.5-0.5-0.3-1.3,0-1.8c0.5-0.5,1.3-0.3,1.8,0l63.6,73.5
	c0.5,0.5,0.3,1.3,0,1.8C627.7,476.5,627.4,476.8,627.1,476.8z"/>
<path class="st1" d="M627.1,519c-0.8,0-1.3-0.5-1.3-1.3c0-0.3,0-0.5,0.3-0.8L662,481c0.5-0.5,1.3-0.5,1.8,0c0.5,0.5,0.5,1.3,0,1.8
	l-35.9,35.7C627.7,518.7,627.4,519,627.1,519z"/>
<path class="st0" d="M149.7,550c0-34.4-27.9-116.2-62.3-116.2S25.2,515.6,25.2,550s27.9,62.3,62.3,62.3
	C121.6,612.3,149.4,584.4,149.7,550L149.7,550z"/>
<path class="st1" d="M87.2,687.8c-0.3,0-0.8-0.3-0.8-0.8V541.4c0-0.3,0.3-0.8,0.8-0.8c0.3,0,0.8,0.3,0.8,0.8l0,0V687
	C88,687.5,87.7,687.8,87.2,687.8z"/>
<path class="st1" d="M87.2,569c-0.3,0-0.3,0-0.5-0.3L51,527.6c-0.3-0.3-0.3-0.8,0-1c0.3-0.3,0.8-0.3,1,0l35.7,41.2
	c0.3,0.3,0.3,0.8,0,1C87.7,568.8,87.4,569,87.2,569L87.2,569z"/>
<path class="st1" d="M87.2,592.7c-0.3,0-0.8-0.3-0.8-0.8c0-0.3,0-0.3,0.3-0.5l20.6-20.6c0.3-0.3,0.8-0.3,1,0c0.3,0.3,0.3,0.8,0,1
	l-20.6,20.6C87.7,592.7,87.4,592.7,87.2,592.7z"/>
<path class="st0" d="M19.7,687c0-14.6,11.7-26,26-26s26,11.7,26,26"/>
<path class="st1" d="M45.8,687c-0.3,0-0.8-0.3-0.8-0.8v-13.5c0-0.3,0.3-0.8,0.8-0.8c0.3,0,0.8,0.3,0.8,0.8v13.5
	C46.5,686.7,46.3,687,45.8,687z"/>
<path class="st1" d="M45.8,682.3c-0.3,0-0.3,0-0.5-0.3l-8.6-7.3c-0.3-0.3-0.3-0.8,0-1c0.3-0.3,0.8-0.3,1,0l0,0l8.6,7.3
	c0.3,0.3,0.3,0.8,0,1C46.3,682.1,46,682.3,45.8,682.3z"/>
<path class="st0" d="M99.9,687c0-14.6,11.7-26,26-26c14.6,0,26,11.7,26,26"/>
<path class="st1" d="M126,687c-0.3,0-0.8-0.3-0.8-0.8v-13.5c0-0.3,0.3-0.8,0.8-0.8c0.3,0,0.8,0.3,0.8,0.8l0,0v13.5
	C126.8,686.7,126.2,687,126,687z"/>
<path class="st1" d="M126,682.3c-0.3,0-0.3,0-0.5-0.3l-8.6-7.3c-0.3-0.3-0.3-0.8,0-1c0.3-0.3,0.8-0.3,1,0l0,0l8.6,7.3
	c0.3,0.3,0.3,0.8,0,1C126.2,682.1,126.2,682.3,126,682.3z"/>
<g>
	<path class="st1" d="M1061.8,583.6c-158.9,0-288.3-129.2-288.3-288.3S902.9,6.9,1061.8,6.9s288.3,129.2,288.3,288.3
		S1221,583.6,1061.8,583.6z M1061.8,10.8c-156.8,0-284.4,127.6-284.4,284.4S905,579.7,1061.8,579.7s284.4-127.6,284.4-284.4
		S1218.6,10.8,1061.8,10.8L1061.8,10.8z"/>
	<path class="st1" d="M1061.8,273.9c-1,0-1.8-0.8-1.8-1.8V9c0-1,0.8-1.8,1.8-1.8s1.8,0.8,1.8,1.8v263.1
		C1063.9,273.1,1062.9,273.9,1061.8,273.9z"/>
	<path class="st1" d="M1348.4,297.1h-263.1c-1,0-1.8-0.8-1.8-1.8s0.8-1.8,1.8-1.8h263.1c1,0,1.8,0.8,1.8,1.8
		S1349.4,297.1,1348.4,297.1z"/>
	<path class="st1" d="M1038.7,297.1H775.6c-1,0-1.8-0.8-1.8-1.8s0.8-1.8,1.8-1.8h263.1c1,0,1.8,0.8,1.8,1.8
		S1039.7,297.1,1038.7,297.1z"/>
	<path class="st1" d="M1061.8,583.6c-1,0-1.8-0.8-1.8-1.8V318.7c0-1,0.8-1.8,1.8-1.8s1.8,0.8,1.8,1.8v263.1
		C1063.9,582.8,1062.9,583.6,1061.8,583.6z"/>
	<path class="st1" d="M1079,281.7c-1,0-1.8-0.8-1.8-1.8c0-0.5,0.3-1,0.5-1.3l185.2-185.2c0.8-0.8,1.8-0.8,2.6,0
		c0.8,0.8,0.8,1.8,0,2.6l0,0l-185.2,185.2C1079.8,281.5,1079.3,281.7,1079,281.7z"/>
	<path class="st1" d="M1044.9,281.7c-0.5,0-1-0.3-1.3-0.5L858.4,96c-0.8-0.8-0.8-1.8,0-2.6c0.8-0.8,1.8-0.8,2.6,0l185.2,185.2
		c0.8,0.8,0.8,1.8,0,2.6C1045.7,281.5,1045.4,281.7,1044.9,281.7L1044.9,281.7z"/>
	<path class="st1" d="M1264.2,498.2c-0.5,0-1-0.3-1.3-0.5l-185.2-185.2c-0.8-0.8-0.8-1.8,0-2.6c0.8-0.8,1.8-0.8,2.6,0l0,0
		L1265.5,495c0.8,0.8,0.8,1.8,0,2.6C1265.3,497.9,1264.7,498.2,1264.2,498.2L1264.2,498.2z"/>
	<path class="st1" d="M859.7,498.2c-1,0-1.8-0.8-1.8-1.8c0-0.5,0.3-1,0.5-1.3l185.2-185.2c0.8-0.8,1.8-0.8,2.6,0
		c0.8,0.8,0.8,1.8,0,2.6L861,497.6C860.5,497.9,860.2,498.2,859.7,498.2z"/>
	<path class="st1" d="M1061.8,493.7c-109.7,0-198.5-88.8-198.5-198.5s88.8-198.5,198.5-198.5s198.5,88.8,198.5,198.5
		C1260.3,404.9,1171.5,493.7,1061.8,493.7z M1061.8,101c-107.3,0-194.6,87.3-194.6,194.6s87.3,194.6,194.6,194.6
		s194.6-87.3,194.6-194.6C1256.1,188.2,1169.1,101,1061.8,101z"/>
	<circle class="st2" cx="1061.8" cy="295.3" r="23.2"/>
	<polygon class="st2" points="972,687.5 951.7,688 1051.2,286.1 1069.9,291.9 	"/>
	<polygon class="st2" points="1151.7,687.5 1172.3,688 1072.5,286.1 1054.3,291.9 	"/>
	<rect x="1029" y="67.1" class="st1" width="63.8" height="34.6"/>
	<rect x="1032.9" y="74.9" class="st3" width="25.3" height="27.1"/>
	<rect x="1063.9" y="74.9" class="st3" width="25.3" height="27.1"/>
	<path class="st1" d="M1061.1,139.5c-20.3,0-36.7-16.4-37-37v-1c0-4.9,3.9-8.9,8.9-8.9h56c4.9,0,8.9,3.9,8.9,8.9v1
		C1097.8,123.1,1081.4,139.5,1061.1,139.5z"/>
	<path class="st4" d="M1090.5,75.9h-59.1c-2.6,0-4.9-2.1-4.9-4.9c0-0.8,0.3-1.3,0.5-2.1l11.5-23.2c0.8-1.6,2.3-2.6,4.4-2.6h35.7
		c1.8,0,3.6,1,4.4,2.6l11.5,23.2c1,2.3,0.3,5.2-2.1,6.5C1092,75.7,1091,75.9,1090.5,75.9z"/>
	<rect x="1201.2" y="144.4" class="st1" width="63.8" height="34.6"/>
	<rect x="1205.1" y="152" class="st3" width="25.3" height="27.1"/>
	<rect x="1235.8" y="152" class="st3" width="25.3" height="27.1"/>
	<path class="st1" d="M1233.2,217.1c-20.3,0-36.7-16.4-37-37v-1c0-4.9,3.9-8.9,8.9-8.9h56c4.9,0,8.9,3.9,8.9,8.9v1
		C1269.7,200.4,1253.5,216.9,1233.2,217.1z"/>
	<path class="st4" d="M1215.3,122.3c-1,0-2.1,0.5-2.3,1.6l-11.5,23.2c-0.8,1.3,0,3.4,1.3,3.9c0.3,0.3,0.8,0.3,1.3,0.3h59.1
		c1.6,0,3.1-1.3,3.1-3.1c0-0.5,0-0.8-0.3-1.3l-11.5-23.2c-0.5-1-1.3-1.6-2.3-1.6h-36.7v0.3C1215.5,122.3,1215.3,122.3,1215.3,122.3z
		"/>
	<rect x="1268.9" y="318.4" class="st1" width="63.8" height="34.6"/>
	<rect x="1272.8" y="326.5" class="st3" width="25.3" height="27.1"/>
	<rect x="1303.8" y="326.5" class="st3" width="25.3" height="27.1"/>
	<path class="st1" d="M1300.9,391.1c-20.3,0-36.7-16.4-37-37v-1c0-4.9,3.9-8.9,8.9-8.9h56c4.9,0,8.9,3.9,8.9,8.9v1
		C1337.7,374.7,1321.3,391.1,1300.9,391.1z"/>
	<path class="st4" d="M1330.4,327.3h-59.1c-2.6,0-4.9-2.1-4.9-4.9c0-0.8,0.3-1.3,0.5-2.1l11.5-23.2c0.8-1.6,2.3-2.6,4.4-2.6h35.9
		c1.8,0,3.6,1,4.4,2.6l11.5,23.2c1,2.3,0.3,5.2-2.1,6.5C1331.9,327.3,1330.9,327.3,1330.4,327.3z"/>
	<rect x="1197.3" y="481" class="st1" width="63.8" height="34.6"/>
	<rect x="1201.2" y="488.8" class="st3" width="25.3" height="27.1"/>
	<rect x="1232.2" y="488.8" class="st3" width="25.3" height="27.1"/>
	<path class="st1" d="M1229.3,553.6c-20.3,0-36.7-16.4-37-37v-1c0-4.9,3.9-8.9,8.9-8.9h56c4.9,0,8.9,3.9,8.9,8.9v1
		C1266,537,1249.6,553.6,1229.3,553.6z"/>
	<path class="st4" d="M1259,489.8h-59.1c-2.6,0-4.9-2.1-4.9-4.9c0-0.8,0.3-1.3,0.5-2.1l11.5-23.2c0.8-1.6,2.3-2.6,4.4-2.6h35.7
		c1.8,0,3.6,1,4.4,2.6l11.5,23.2c1,2.3,0.3,5.2-2.1,6.5C1260.3,489.6,1259.5,489.8,1259,489.8z"/>
	<rect x="858.9" y="144.4" class="st1" width="63.8" height="34.6"/>
	<rect x="893.6" y="152" class="st3" width="25.3" height="27.1"/>
	<rect x="862.8" y="152" class="st3" width="25.3" height="27.1"/>
	<path class="st1" d="M891,217.1c-20.3,0-36.7-16.4-37-37v-1c0-4.9,3.9-8.9,8.9-8.9h56c4.9,0,8.9,3.9,8.9,8.9v1
		C927.4,200.4,911,216.9,891,217.1z"/>
	<path class="st4" d="M920.4,153.3h-59.1c-2.6,0-4.9-2.1-4.9-4.9c0-0.8,0.3-1.3,0.5-2.1l11.5-23.2c0.8-1.6,2.3-2.6,4.4-2.6h35.7
		c1.8,0,3.6,1,4.4,2.6l11.5,23.2c1,2.3,0.3,5.2-2.1,6.5C921.7,153,920.9,153.3,920.4,153.3z"/>
	<rect x="791.2" y="318.4" class="st1" width="63.8" height="34.6"/>
	<rect x="825.8" y="326.5" class="st3" width="25.3" height="27.1"/>
	<rect x="794.9" y="326.5" class="st3" width="25.3" height="27.1"/>
	<path class="st1" d="M823,391.1c-20.3,0-36.7-16.4-37-37v-1c0-4.9,3.9-8.9,8.9-8.9h56c4.9,0,8.9,3.9,8.9,8.9v1
		C859.7,374.7,843.3,391.1,823,391.1z"/>
	<path class="st4" d="M852.7,327.3h-59.1c-2.6,0-4.9-2.1-4.9-4.9c0-0.8,0.3-1.3,0.5-2.1l11.5-23.2c0.8-1.6,2.3-2.6,4.4-2.6h35.7
		c1.8,0,3.6,1,4.4,2.6l11.5,23.2c1,2.3,0.3,5.2-2.1,6.5C854,327.3,853.5,327.3,852.7,327.3z"/>
	<rect x="862.8" y="481" class="st1" width="63.8" height="34.6"/>
	<rect x="897.5" y="488.8" class="st3" width="25.3" height="27.1"/>
	<rect x="866.5" y="488.8" class="st3" width="25.3" height="27.1"/>
	<path class="st1" d="M894.6,553.6c-20.3,0-36.7-16.4-37-37v-1c0-4.9,3.9-8.9,8.9-8.9h56c4.9,0,8.9,3.9,8.9,8.9v1
		C931.3,537,914.9,553.6,894.6,553.6z"/>
	<path class="st4" d="M924.3,489.8h-59.1c-2.6,0-4.9-2.1-4.9-4.9c0-0.8,0.3-1.3,0.5-2.1l11.5-23.2c0.8-1.6,2.3-2.6,4.4-2.6h35.7
		c1.8,0,3.6,1,4.4,2.6l11.5,23.2c1,2.3,0.3,5.2-2.1,6.5C925.6,489.6,925.1,489.8,924.3,489.8z"/>
	<rect x="1029" y="554.7" class="st1" width="63.8" height="34.6"/>
	<rect x="1032.9" y="562.5" class="st3" width="25.3" height="27.1"/>
	<rect x="1063.9" y="562.5" class="st3" width="25.3" height="27.1"/>
	<path class="st1" d="M1032.9,582.8c-3.9,0-6.8,3.1-6.8,6.8v1c0,19,15.6,34.6,34.6,34.6s34.6-15.6,34.6-34.6v-1
		c0-3.9-3.1-6.8-6.8-6.8H1032.9z"/>
	<path class="st4" d="M1043.1,532.5c-1,0-2.1,0.5-2.3,1.6l-11.5,23.2c-0.8,1.3,0,3.4,1.3,3.9c0.3,0.3,0.8,0.3,1.3,0.3h59.1
		c1.6,0,3.1-1.3,3.1-3.1c0-0.5,0-0.8-0.3-1.3l-11.5-23.2c-0.5-1-1.3-1.6-2.3-1.6h-36.7v0.3H1043.1L1043.1,532.5z"/>
</g>
<path class="st1" d="M1439.5,690.4H4.4c-1.3,0-2.4-0.5-2.4-1.2s1-1.4,2.4-1.4l0,0h1435.1c1.3,0,2.4,0.5,2.4,1.2
	C1441.8,689.6,1440.8,690.4,1439.5,690.4L1439.5,690.4z"/>
<g>
	<ellipse class="st5" cx="427.3" cy="708.9" rx="100.5" ry="9.2"/>
	<path class="st6" d="M346.8,558.4c0,0,28.1,0.5,22.9,5.5c-5.2,4.9-24.7,0-24.7,0L346.8,558.4z"/>
	<path class="st4" d="M288.2,498.3c0,0,11.3-2,15.3,7.1c3.9,9.2,12,35.3,12,35.3s21.7,14.4,25.6,13.9c3.9-0.5,10.7,0.5,9.5,4.8
		c-1.2,4.3-0.7,9.2-3.5,9.8c-2.8,0.6-7.4-5.1-10.8-2.4s-34.4-7.3-36.3-9.4c-2-2.1-18.5-47.1-18.5-47.1S282.1,498.2,288.2,498.3z"/>
	<polygon class="st6" points="312.6,691.8 313.9,702.7 303,705.6 296.7,702.7 296.7,693.1 	"/>
	<polygon class="st6" points="283.2,698.8 284.5,709.7 273.5,712.6 267.3,709.7 267.3,700.1 	"/>
	<path class="st7" d="M313.6,572.3l4.9,18l7.3,36.4c0,0,2.1,8.8-2.1,19.5c-4.2,10.7-11.7,45.5-10.2,47.6c1.6,2.1-17.7,3.6-17.4,1.6
		c0.3-2.1,2.9-30.7,2.9-30.7s3.6-25.2,5.5-28.4c1.8-3.1-8.3-10.9-8.3-10.9s-2.6,29.9-6.5,32.5c-3.9,2.6-3.4,42.9-5.2,43.5
		c-1.8,0.5-15.1,2.6-16.7,0c-1.6-2.6,0-46.1,0-46.1s8.8-33.1,7-37.7c-1.8-4.7-0.8-24.7-0.8-24.7s-6.8-15.4-3.1-23.4L313.6,572.3z"/>
	<path class="st6" d="M312.8,472.4c0,0-10.9,13.5-10.4,19.5c0.5,6-17.2-10.9-17.2-10.9s12.8-17.2,12.8-20.8S312.8,472.4,312.8,472.4
		z"/>
	<circle class="st6" cx="312.7" cy="460.3" r="17.2"/>
	<path class="st4" d="M269.4,562.6c-0.8,2.9-1.7,6.2-1.6,9c0.1,1.8,4.8,3,11.4,3.7c6.1,0.7,13.8,1.1,20.7,1.3
		c7.3,0.2,13.9,0.2,17,0.2c9.4,0,1.8-6-1.8-8.8c-3.6-2.9-2.9-43.5-2.6-48.7c0.3-5.2-2.3-20.3-2.3-23.2s-6.1-10.3-6.1-10.3
		s-1.4,4.1-7.1-1.4c-5.7-5.5-13.3-7-13.3-7c-5.7,2.1-15.4,25-15.9,28.9c-0.2,1.6,0,9.7,0.3,19c0.5,13.5,1.4,29.6,2,31.3
		C270.6,557.8,270.1,560,269.4,562.6z"/>
	<polygon class="st6" points="297.2,577.8 299.1,584.3 292,591.6 289.7,581.4 	"/>
	<path class="st7" d="M299.6,699.8c0,0,5.5,6.2,9.6,2.1c4.2-4.2,3.9-6.8,4.7-6.8c0.8,0,12.5,10.4,12.5,10.4s20,4.7,9.1,8.1
		c-10.9,3.4-41.9,1-41.9,0c0-1-0.8-14.8,2.1-14.8L299.6,699.8z"/>
	<path class="st7" d="M270.2,706.9c0,0,5.5,6.2,9.6,2.1c4.2-4.2,3.9-6.8,4.7-6.8s12.5,10.4,12.5,10.4s20,4.7,9.1,8.1
		c-10.9,3.4-41.9,1-41.9,0c0-1-0.8-14.8,2.1-14.8L270.2,706.9z"/>
	<path class="st7" d="M293.4,474c-0.6,0.4-1.3,0.7-1.8,0.4c-2.1-5.2-3.6-10.5-4.6-16c-0.4-1.9-0.6-4,0.5-5.7c0.4-0.6,1-1.2,1.3-1.9
		c0.5-1.1,0.2-2.3,0.3-3.5c0.3-2.4,2.6-4.1,4.9-4.9c2.3-0.8,4.8-1.1,7-2.1c2.1-1,3.7-2.7,5.7-4c1.9-1.3,4.4-2.2,6.5-1.3
		c1.9,0.8,3.1,2.7,4.9,3.7c1.2,0.7,2.6,0.9,4,1.1c3.8,0.8,7.3,2.5,10.4,4.8c0.7,0.5,1.4,1.2,1.9,1.9c2.3,3.8-1.8,9,0,13l-3.9-3.1
		c-1.1-0.9-2.2-1.7-3.5-2.2c-1.3-0.5-2.8-0.6-4,0.2c-1.7,1-2.1,3.2-2.7,5.1c-0.6,1.9-1.9,3.9-3.8,3.9c-2.7-0.1-3.6-3.8-6-5
		c-1.6-0.8-3.5-0.3-4.8,0.9c-1.3,1.1-2.1,2.7-2.7,4.4c-0.4,1-0.7,2.2-1.4,3.1c-0.7,1-1.6,1.1-2.4,1.8
		C297.1,470.4,295.9,472.4,293.4,474z"/>
	<path class="st5" d="M269.4,562.6c3.2,4.7,6.9,9.5,9.8,12.7c6.1,0.7,13.8,1.1,20.7,1.3c-1.2-1.7-2.8-3.1-4.6-4.2
		c-3.4-2.1-11.5-26.8-11.5-26.8s9.9-25.5,12.5-35.1c2.6-9.6-7.5-15.1-7.5-15.1c-4.7-3.9-12.8,5.2-12.8,5.2s-4.1,12.4-8,24.7
		c0.5,13.5,1.4,29.6,2,31.3C270.6,557.8,270.1,560,269.4,562.6z"/>
	<path class="st4" d="M288.1,493.2c0,0,10.2,5.5,7.5,15.1c-2.6,9.6-12.5,35.1-12.5,35.1s8.1,24.7,11.5,26.8c3.4,2.1,8.1,7,4.4,9.6
		c-3.6,2.6-6.2,6.8-8.8,5.5c-2.6-1.3-2.6-8.6-7-8.6c-4.4,0-22.4-27.1-22.6-29.9c-0.3-2.9,14.8-48.4,14.8-48.4
		S283.4,489.3,288.1,493.2z"/>
	<path class="st4" d="M499.2,564.3l-2.9-2.9c-3.6-3.6-9.3-3.6-12.9,0l-56.8,56.8l-56.8-56.8c-3.6-3.6-9.3-3.6-12.9,0l-2.9,2.9
		c-3.6,3.6-3.6,9.3,0,12.9h0l56.8,56.8L354,690.8c-3.6,3.6-3.6,9.3,0,12.9l2.9,2.9c3.6,3.6,9.3,3.6,12.9,0l56.8-56.8l56.8,56.8
		c3.6,3.6,9.3,3.6,12.9,0l2.9-2.9c3.6-3.6,3.6-9.3,0-12.9L442.4,634l56.8-56.8C502.7,573.6,502.7,567.9,499.2,564.3z"/>
	<path class="st5" d="M352,693.9l55.1-55.1l-0.5-0.5L354,690.8C353.1,691.7,352.4,692.7,352,693.9z"/>
	<path class="st5" d="M353.2,566.2c3.6-3.6,9.3-3.6,12.9,0l0,0l56.8,56.8l56.8-56.8c3.6-3.6,9.3-3.6,12.9,0l0,0l2.9,2.9
		c2.6,2.6,3.4,6.4,2,9.8l1.7-1.7c3.6-3.6,3.6-9.3,0-12.9c0,0,0,0,0,0l-2.9-2.9c-3.6-3.6-9.3-3.6-12.9,0l-56.8,56.8l-56.8-56.8
		c-3.6-3.6-9.3-3.6-12.9,0l-2.9,2.9c-0.9,0.9-1.6,1.9-2,3.1L353.2,566.2z"/>
	<path class="st5" d="M442.9,634.5l-4.2,4.2l56.8,56.8c2.6,2.6,3.4,6.4,2,9.8l1.7-1.7c3.6-3.6,3.6-9.3,0-12.9l0,0L442.9,634.5z"/>
</g>
</svg>
