<?xml version="1.0" encoding="utf-8"?>
<!-- Generator: Adobe Illustrator 23.0.1, SVG Export Plug-In . SVG Version: 6.00 Build 0)  -->
<svg version="1.1" id="Capa_1" xmlns="http://www.w3.org/2000/svg" xmlns:xlink="http://www.w3.org/1999/xlink" x="0px" y="0px"
	 viewBox="0 0 807.5 420" style="enable-background:new 0 0 807.5 420;" xml:space="preserve">
<style type="text/css">
	.st0{fill:#F1F1F1;}
	.st1{fill:#FFFFFF;}
	.st2{fill:#E5E5E5;}
	.st3{fill:#E6E6E6;}
	.st4{fill:#CBCBCB;}
</style>
<rect id="fc777aff-63b1-4720-84dc-e3a9c20790b9" x="151.2" y="75.8" transform="matrix(0.9897 -0.143 0.143 0.9897 -21.8702 54.7171)" class="st0" width="437.2" height="207.5"/>
<rect id="ecffa418-b240-4504-be04-512edea7ccda" x="163.8" y="93.6" transform="matrix(0.9897 -0.143 0.143 0.9897 -21.9549 54.7356)" class="st1" width="412.2" height="173.1"/>
<rect id="b49ce3f1-9d75-4481-986b-3b6beb000c79" x="135.8" y="64.9" transform="matrix(0.9897 -0.143 0.143 0.9897 -6.9722 51.4333)" class="st2" width="437.2" height="18.6"/>
<circle id="a4219562-805a-49cd-8b89-b1f92f7a9e75" class="st1" cx="151.9" cy="105.1" r="3.4"/>
<circle id="b0f6399c-6944-4f74-a888-473f61f9730c" class="st1" cx="164.9" cy="103.3" r="3.4"/>
<circle id="b03f93dc-2c99-4323-9b17-02f51b8830c0" class="st1" cx="177.8" cy="101.4" r="3.4"/>
<rect id="a6067cfc-0392-4d68-afe4-e34d11a8f0ac" x="233.5" y="134" class="st3" width="437.2" height="207.5"/>
<rect id="ecd65817-7467-4dbd-a435-c0f1d9841c98" x="246" y="151.8" class="st1" width="412.2" height="173.1"/>
<rect id="eea6c39d-8a45-4eb1-bab9-6120f465de14" x="233.3" y="122" class="st4" width="437.2" height="18.6"/>
<circle id="ab9e51f9-7431-4d30-8193-f9435a6bd5c3" class="st1" cx="247.1" cy="132.9" r="3.4"/>
<circle id="a54ed687-3b0d-413b-b405-af8897a5c032" class="st1" cx="260.2" cy="132.9" r="3.4"/>
<circle id="fd1d2195-7e97-488f-8f4b-7061a06deb9a" class="st1" cx="273.3" cy="132.9" r="3.4"/>
<rect x="483.6" y="178.1" class="st3" width="58.1" height="4.4"/>
<rect x="483.6" y="190.9" class="st3" width="89.6" height="4.4"/>
<rect x="484.5" y="203.1" class="st3" width="73.1" height="4.4"/>
<rect x="483.6" y="216.5" class="st3" width="42.7" height="4.4"/>
<rect x="483.6" y="229.5" class="st3" width="64.4" height="4.4"/>
<rect x="457.1" y="176.7" class="st3" width="7.1" height="7.1"/>
<rect x="457.1" y="189.5" class="st3" width="7.1" height="7.1"/>
<rect x="457.1" y="201.7" class="st3" width="7.1" height="7.1"/>
<rect x="457.1" y="215.1" class="st3" width="7.1" height="7.1"/>
<rect x="457.1" y="228.2" class="st3" width="7.1" height="7.1"/>
<rect x="483.6" y="242.7" class="st3" width="58.1" height="4.4"/>
<rect x="483.6" y="255.5" class="st3" width="89.6" height="4.4"/>
<rect x="484.5" y="267.7" class="st3" width="73.1" height="4.4"/>
<rect x="483.6" y="281.1" class="st3" width="42.7" height="4.4"/>
<rect x="483.6" y="294.2" class="st3" width="64.4" height="4.4"/>
<rect x="457.1" y="241.3" class="st3" width="7.1" height="7.1"/>
<rect x="457.1" y="254.1" class="st3" width="7.1" height="7.1"/>
<rect x="457.1" y="266.3" class="st3" width="7.1" height="7.1"/>
<rect x="457.1" y="279.7" class="st3" width="7.1" height="7.1"/>
<rect x="457.1" y="292.8" class="st3" width="7.1" height="7.1"/>
<rect x="299.9" y="276.9" class="st3" width="58.1" height="4.4"/>
<rect x="292.1" y="288.3" class="st3" width="73.1" height="4.4"/>
<path class="st3" d="M366.7,221.9c0,20.9-17,37.9-37.9,37.9c-6.3,0-12.4-1.6-17.9-4.5l0,0c-18.4-9.9-25.3-32.9-15.4-51.4
	c9.9-18.4,32.9-25.3,51.4-15.4C359,195.1,366.7,207.9,366.7,221.9z"/>
<circle class="st1" cx="328.9" cy="209.7" r="10.3"/>
<path class="st1" d="M346.5,241.3c-11.5,4-24.1,4-35.6-0.1l0,0l7.7-15.2h20.6L346.5,241.3z"/>
<path class="st4" d="M214.9,316c-18,0-32.6-15.5-32.6-34.6c0-19.1,14.6-34.6,32.6-34.6s32.6,15.5,32.6,34.6
	C247.4,300.5,232.8,316,214.9,316z M214.9,255.5c-13.1,0-23.8,11.6-23.8,25.9s10.7,25.9,23.8,25.9s23.8-11.6,23.8-25.9
	S228,255.5,214.9,255.5z"/>
<path class="st4" d="M245.7,376.3H184c-11.3,0-20.5-9.2-20.5-20.5v-60.5c0-7.8,6.3-14,14-14h74.6c7.8,0,14,6.3,14,14v60.5
	C266.2,367.1,257,376.3,245.7,376.3z"/>
<path class="st1" d="M226.9,315.6c0-6.6-5.4-12-12-12c-6.6,0-12,5.4-12,12c0,4.5,2.5,8.7,6.6,10.7v18.8h10.9v-18.8
	C224.4,324.3,226.9,320.1,226.9,315.6z"/>
</svg>
