<svg xmlns="http://www.w3.org/2000/svg" xmlns:xlink="http://www.w3.org/1999/xlink" version="1.1" width="256" height="256" viewBox="0 0 256 256" xml:space="preserve">

<defs>
</defs>
<g style="stroke: none; stroke-width: 0; stroke-dasharray: none; stroke-linecap: butt; stroke-linejoin: miter; stroke-miterlimit: 10; fill: none; fill-rule: nonzero; opacity: 1;" transform="translate(1.4065934065934016 1.4065934065934016) scale(2.81 2.81)" >
	<path d="M 66.121 40.798 c -1.901 0 -3.443 -1.541 -3.443 -3.443 V 22.827 c 0 -8.79 -7.151 -15.941 -15.941 -15.941 h -3.474 c -8.79 0 -15.941 7.151 -15.941 15.941 v 14.529 c 0 1.901 -1.541 3.443 -3.443 3.443 s -3.443 -1.541 -3.443 -3.443 V 22.827 C 20.436 10.24 30.676 0 43.263 0 h 3.474 c 12.587 0 22.827 10.24 22.827 22.827 v 14.529 C 69.563 39.257 68.022 40.798 66.121 40.798 z" style="stroke: none; stroke-width: 1; stroke-dasharray: none; stroke-linecap: butt; stroke-linejoin: miter; stroke-miterlimit: 10; fill: rgb(51,50,63); fill-rule: nonzero; opacity: 1;" transform=" matrix(1 0 0 1 0 0) " stroke-linecap="round" />
	<path d="M 69.789 90 H 20.211 c -3.449 0 -6.245 -2.796 -6.245 -6.245 V 43.601 c 0 -3.449 2.796 -6.245 6.245 -6.245 h 49.577 c 3.449 0 6.245 2.796 6.245 6.245 v 40.154 C 76.034 87.204 73.238 90 69.789 90 z" style="stroke: none; stroke-width: 1; stroke-dasharray: none; stroke-linecap: butt; stroke-linejoin: miter; stroke-miterlimit: 10; fill: rgb(255,205,46); fill-rule: nonzero; opacity: 1;" transform=" matrix(1 0 0 1 0 0) " stroke-linecap="round" />
	<path d="M 45 65.948 L 45 65.948 c -3.628 0 -6.597 -2.969 -6.597 -6.597 v -3.323 c 0 -3.628 2.969 -6.597 6.597 -6.597 h 0 c 3.628 0 6.597 2.969 6.597 6.597 v 3.323 C 51.597 62.979 48.628 65.948 45 65.948 z" style="stroke: none; stroke-width: 1; stroke-dasharray: none; stroke-linecap: butt; stroke-linejoin: miter; stroke-miterlimit: 10; fill: rgb(51,50,63); fill-rule: nonzero; opacity: 1;" transform=" matrix(1 0 0 1 0 0) " stroke-linecap="round" />
	<path d="M 55.675 76.767 v -3.346 c 0 -4.651 -3.806 -8.457 -8.457 -8.457 h -4.437 c -4.651 0 -8.457 3.806 -8.457 8.457 v 3.346 c 0 0.64 0.519 1.16 1.16 1.16 h 19.031 C 55.156 77.926 55.675 77.407 55.675 76.767 z" style="stroke: none; stroke-width: 1; stroke-dasharray: none; stroke-linecap: butt; stroke-linejoin: miter; stroke-miterlimit: 10; fill: rgb(51,50,63); fill-rule: nonzero; opacity: 1;" transform=" matrix(1 0 0 1 0 0) " stroke-linecap="round" />
</g>
</svg>