<svg xmlns="http://www.w3.org/2000/svg" xmlns:xlink="http://www.w3.org/1999/xlink" version="1.1" width="256" height="256" viewBox="0 0 256 256" xml:space="preserve">

<defs>
</defs>
<g style="stroke: none; stroke-width: 0; stroke-dasharray: none; stroke-linecap: butt; stroke-linejoin: miter; stroke-miterlimit: 10; fill: none; fill-rule: nonzero; opacity: 1;" transform="translate(1.4065934065934016 1.4065934065934016) scale(2.81 2.81)" >
	<path d="M 81.253 90 H 8.747 c -1.697 0 -3.072 -1.375 -3.072 -3.072 V 34.121 h 78.65 v 52.807 C 84.325 88.625 82.95 90 81.253 90 z" style="stroke: none; stroke-width: 1; stroke-dasharray: none; stroke-linecap: butt; stroke-linejoin: miter; stroke-miterlimit: 10; fill: rgb(243,172,71); fill-rule: nonzero; opacity: 1;" transform=" matrix(1 0 0 1 0 0) " stroke-linecap="round" />
	<polygon points="45,0 5.67,34.12 5.67,34.12 5.67,34.12 45,68.24 84.33,34.12 " style="stroke: none; stroke-width: 1; stroke-dasharray: none; stroke-linecap: butt; stroke-linejoin: miter; stroke-miterlimit: 10; fill: rgb(69,96,116); fill-rule: nonzero; opacity: 1;" transform="  matrix(1 0 0 1 0 0) "/>
	<path d="M 45 55.879 L 6.645 89.158 C 7.195 89.677 7.931 90 8.747 90 h 72.507 c 0.815 0 1.552 -0.323 2.102 -0.842 C 81.509 87.557 45 55.879 45 55.879 z" style="stroke: none; stroke-width: 1; stroke-dasharray: none; stroke-linecap: butt; stroke-linejoin: miter; stroke-miterlimit: 10; fill: rgb(241,154,61); fill-rule: nonzero; opacity: 1;" transform=" matrix(1 0 0 1 0 0) " stroke-linecap="round" />
	<path d="M 16.173 7.816 v 21.89 v 9.524 l 21.702 18.831 L 45 51.879 c 0 0 2.909 2.524 7.125 6.182 L 73.827 39.23 v -9.524 V 7.816 H 16.173 z" style="stroke: none; stroke-width: 1; stroke-dasharray: none; stroke-linecap: butt; stroke-linejoin: miter; stroke-miterlimit: 10; fill: rgb(240,240,240); fill-rule: nonzero; opacity: 1;" transform=" matrix(1 0 0 1 0 0) " stroke-linecap="round" />
	<path d="M 54.76 43.778 c -0.224 0 -0.438 -0.088 -0.598 -0.248 l -2.419 -2.419 c -0.179 -0.18 -0.268 -0.427 -0.244 -0.679 l 0.115 -1.209 l -0.749 0.146 c -0.252 0.045 -0.511 -0.025 -0.706 -0.195 c -0.194 -0.169 -0.301 -0.414 -0.291 -0.671 l 0.046 -1.222 l -1.326 0.198 c -0.262 0.038 -0.531 -0.053 -0.718 -0.24 l -1.275 -1.275 c -0.203 -0.204 -0.289 -0.493 -0.23 -0.774 l 0.241 -1.152 l -1.142 0.251 c -0.282 0.059 -0.57 -0.027 -0.773 -0.23 l -0.945 -0.945 c -3.078 1.531 -6.861 0.928 -9.306 -1.517 c -3.149 -3.149 -3.149 -8.272 0 -11.421 c 3.148 -3.149 8.272 -3.149 11.421 0 c 2.368 2.368 3.018 5.944 1.664 8.988 l 10.147 10.147 c 0.16 0.16 0.248 0.373 0.248 0.599 v 2.768 c 0 0.433 -0.325 0.796 -0.756 0.842 l -2.313 0.251 C 54.821 43.776 54.79 43.778 54.76 43.778 z M 38.468 22.019 c -0.396 0 -0.792 0.151 -1.093 0.452 c -0.603 0.603 -0.603 1.583 0 2.186 c 0.603 0.602 1.583 0.603 2.186 0 c 0.603 -0.603 0.603 -1.583 0 -2.186 C 39.26 22.17 38.864 22.019 38.468 22.019 z" style="stroke: none; stroke-width: 1; stroke-dasharray: none; stroke-linecap: butt; stroke-linejoin: miter; stroke-miterlimit: 10; fill: rgb(220,103,84); fill-rule: nonzero; opacity: 1;" transform=" matrix(1 0 0 1 0 0) " stroke-linecap="round" />
</g>
</svg>