<?xml version="1.0" encoding="utf-8"?>
<!-- Generator: Adobe Illustrator 23.0.1, SVG Export Plug-In . SVG Version: 6.00 Build 0)  -->
<svg version="1.1" id="Capa_1" xmlns="http://www.w3.org/2000/svg" xmlns:xlink="http://www.w3.org/1999/xlink" x="0px" y="0px"
	 viewBox="0 0 250 250" style="enable-background:new 0 0 250 250;" xml:space="preserve">
<style type="text/css">
	.st0{fill:#6D6E70;}
	.st1{fill:#345B9C;}
	.st2{fill:#4274B9;}
	.st3{fill:#589BD3;}
</style>
<g>
	<g>
		<path class="st0" d="M124.8,235c44.7,0,86.1,4.9,120.5,13.3c-34.4-17-75.9-26.9-120.5-26.9s-86.2,10-120.6,27
			C38.6,239.9,80.1,235,124.8,235z"/>
	</g>
	<g>
		<path class="st1" d="M175.3,219.4c9.5,1.1,19,2.7,28.2,4.6V2.2l-77.7,32.6v12.3l49.5-20.7V219.4L175.3,219.4z"/>
		<path class="st2" d="M136.4,216.4c9.5,0.2,19,0.8,28.3,1.8V42.1L87.2,74.8v12.3l49.4-20.7v150.1h-0.2V216.4z"/>
		<path class="st3" d="M126,216.3L126,216.3l0.1-134.2l-77.7,32.6v109.2C73.3,218.9,99.4,216.3,126,216.3z"/>
	</g>
</g>
</svg>
