<?xml version="1.0" encoding="utf-8"?>
<!-- Generator: Adobe Illustrator 23.0.1, SVG Export Plug-In . SVG Version: 6.00 Build 0)  -->
<svg version="1.1" id="Capa_1" xmlns="http://www.w3.org/2000/svg" xmlns:xlink="http://www.w3.org/1999/xlink" x="0px" y="0px"
	 viewBox="0 0 300 300" style="enable-background:new 0 0 300 300;" xml:space="preserve">
<style type="text/css">
	.st0{fill:#0A72A0;}
	.st1{opacity:0.11;fill:#8FF4FF;}
	.st2{fill:#FFFFFF;}
	.st3{fill:#F06510;}
	.st4{opacity:0.23;fill:#FFB24D;}
</style>
<g>
	<g>
		<path class="st0" d="M202.6,21.7v200.6c-19.7,17.3-44.1,27.5-70.7,27.5c-28,0-53.7-11.3-73.8-30.3V67.8c0-13.3,4.9-25.4,12.7-33.8
			c7.1-7.6,16.6-12.3,27-12.3H202.6z"/>
		<path class="st1" d="M202.6,21.7v155.9L70.8,34c7.1-7.6,16.6-12.3,27-12.3H202.6z"/>
		<g>
			<path class="st2" d="M173.4,60.1H90.1c-0.8,0-1.5-0.7-1.5-1.5v-3.2c0-0.8,0.7-1.5,1.5-1.5h83.3c0.8,0,1.5,0.7,1.5,1.5v3.2
				C174.9,59.4,174.2,60.1,173.4,60.1z"/>
			<path class="st2" d="M173.4,84.7H90.1c-0.8,0-1.5-0.7-1.5-1.5v-3.2c0-0.8,0.7-1.5,1.5-1.5h83.3c0.8,0,1.5,0.7,1.5,1.5v3.2
				C174.9,84,174.2,84.7,173.4,84.7z"/>
			<path class="st2" d="M173.4,109.3H90.1c-0.8,0-1.5-0.7-1.5-1.5v-3.2c0-0.8,0.7-1.5,1.5-1.5h83.3c0.8,0,1.5,0.7,1.5,1.5v3.2
				C174.9,108.7,174.2,109.3,173.4,109.3z"/>
			<path class="st2" d="M173.4,134H90.1c-0.8,0-1.5-0.7-1.5-1.5v-3.2c0-0.8,0.7-1.5,1.5-1.5h83.3c0.8,0,1.5,0.7,1.5,1.5v3.2
				C174.9,133.3,174.2,134,173.4,134z"/>
			<path class="st2" d="M173.4,158.6H90.1c-0.8,0-1.5-0.7-1.5-1.5V154c0-0.8,0.7-1.5,1.5-1.5h83.3c0.8,0,1.5,0.7,1.5,1.5v3.2
				C174.9,158,174.2,158.6,173.4,158.6z"/>
			<path class="st2" d="M173.4,183.3H90.1c-0.8,0-1.5-0.7-1.5-1.5v-3.2c0-0.8,0.7-1.5,1.5-1.5h83.3c0.8,0,1.5,0.7,1.5,1.5v3.2
				C174.9,182.6,174.2,183.3,173.4,183.3z"/>
		</g>
	</g>
	<g>
		<g>
			<g>
				<g>
					<path class="st3" d="M279.2,110.6c0,6.8-0.5,13.5-1.3,20c-5.4,41-27.3,76.9-58.8,100.7c-25.3,19.1-56.8,30.5-91,30.5
						c-36,0-69.1-12.6-95-33.6c-13.1-10.6-24.4-23.3-33.3-37.7c10,8.2,21.2,15.1,33.3,20.3c17,7.3,35.7,11.4,55.4,11.4
						c59.6,0,110.6-37.3,130.7-89.9c2-5.2,3.7-10.5,5-15.9l-21.4-5.7l25.3-19.3l42.3-32.2C276,75.2,279.2,92.5,279.2,110.6z"/>
				</g>
				<g>
					<polygon class="st3" points="300,136.6 277.9,130.7 236.3,119.6 224,116.3 202.6,110.6 227.9,91.3 270.2,59.1 					"/>
				</g>
			</g>
		</g>
		<path class="st4" d="M138.3,225C56.4,255.4,1,192-0.3,190.4c10,8.2,21.2,15.1,33.3,20.3c17,7.3,35.7,11.4,55.4,11.4
			c59.6,0,110.6-37.3,130.7-89.9c2-5.2,3.7-10.5,5-15.9l-21.4-5.7l25.3-19.3l42.3-32.2C270.2,59.1,250.6,183.3,138.3,225z"/>
	</g>
</g>
</svg>
