<?xml version="1.0" encoding="utf-8"?>
<!-- Generator: Adobe Illustrator 23.0.1, SVG Export Plug-In . SVG Version: 6.00 Build 0)  -->
<svg version="1.1" id="Capa_1" xmlns:v="https://vecta.io/nano"
	 xmlns="http://www.w3.org/2000/svg" xmlns:xlink="http://www.w3.org/1999/xlink" x="0px" y="0px" viewBox="0 0 515.6 110"
	 style="enable-background:new 0 0 515.6 110;" xml:space="preserve">
<style type="text/css">
	.st0{fill:#FF003D;}
	.st1{fill:#FFFFFF;}
	.st2{display:none;}
	.st3{display:inline;fill:#00BDFF;}
</style>
<g>
	<g>
		<path class="st0" d="M14.9,70c-0.8-2.4-1.9-4.6-3.1-6.7C8.9,58,5.1,53.4,0.5,49.6l-0.4-0.3L6.1,31l0.4-0.1
			c8.5-0.6,16.7-3.4,23.8-8.2l0.5-0.4l9,12.5l-0.5,0.4c-2.5,2.1-4.7,4.5-6.4,7.3c1.5-0.8,3.1-1.2,4.7-1.2c5.4,0,10,4.5,10,9.9v0.1
			c0,5.6-4.5,10-10,10c-3.8,0-7.2-2.1-8.9-5.4c-0.1-0.1-0.1-0.2-0.2-0.4c0,0.2-0.1,0.4-0.1,0.6v0.2c-0.1,0.5-0.1,1-0.1,1.6
			c0,2.4,0.3,4.9,0.9,7.3l0.2,0.6l-14.3,4.8L14.9,70z"/>
		<path class="st0" d="M16.3,99.1l0.1-0.4c1-3.8,1.5-7.7,1.5-11.8c0-4.5-0.6-9-1.8-13.2l-0.2-0.6l14.5-4.8l0.2,0.6
			c1.2,3,2.8,5.7,4.8,8.1c-0.1-0.5-0.1-1.1-0.1-1.7c0-5.6,4.5-10,10-10s10,4.5,10,10c0,5.1-3.8,9.3-8.8,10c3,1.3,6.2,2,9.5,2.2
			l0.7,0.1v15.1l-0.7,0.1c-8.5,0.3-16.8,2.8-24,7.3l-0.4,0.2L16.3,99.1z"/>
		<path class="st0" d="M83.8,110c-7.2-4.5-15.4-7-23.8-7.3l-0.7-0.1V87.5l0.7-0.1c3.3-0.2,6.5-1,9.5-2.2c-5-0.6-8.8-4.9-8.8-10
			c0-5.6,4.5-10,10-10s10,4.5,10,10c0,0.6-0.1,1.3-0.2,1.9c2.1-2.4,3.8-5.2,5-8.2l0.2-0.6l14.3,4.7l-0.2,0.6
			c-0.5,1.8-0.9,3.6-1.2,5.4c-0.4,2.5-0.6,5-0.6,7.6c0,4,0.5,7.9,1.5,11.9l0.1,0.4l-15.4,11.3L83.8,110z"/>
		<path class="st0" d="M86.5,65.9l0.2-0.6c0.6-2.4,0.9-4.8,0.9-7.3c0-0.8-0.1-1.5-0.1-2.3c-1.6,3.4-5.1,5.7-9.1,5.7
			c-5.6,0-10-4.5-10-10c0-0.8,0.1-1.6,0.3-2.3c1-4.6,5.1-7.8,9.8-7.8c1.7,0,3.4,0.4,4.8,1.2c-1.7-2.7-3.8-5.2-6.4-7.3l-0.5-0.4
			l9-12.5l0.5,0.4c7,4.7,15.2,7.6,23.7,8.2l0.4,0.1l5.9,18.2l-0.4,0.3c-2.4,2-4.6,4.3-6.6,6.7c-3.4,4.2-6.1,8.9-7.9,13.9l-0.2,0.6
			L86.5,65.9z"/>
		<path class="st0" d="M58.1,46.5c-5.6,0-10-4.5-10-10c0-2.7,1.1-5.3,2.9-7.1c-3,0.7-5.9,2-8.6,3.7l-0.5,0.4l-9-12.5l0.5-0.4
			c6.5-5.2,11.7-12.1,14.8-19.8l0.2-0.4h19.4L68,0.7c3.1,7.7,8.3,14.6,14.9,19.8l0.5,0.4l-9.1,12.5l-0.5-0.4
			c-2.7-1.7-5.6-2.9-8.6-3.6c1.9,1.9,2.9,4.4,2.9,7.1C68.1,42.1,63.6,46.5,58.1,46.5z"/>
	</g>
	<g>
		<path class="st1" d="M174.1,76.8h-20.4l-4,15.1H134L157.1,18h13.7L194,91.9h-15.9L174.1,76.8z M157,64.4h13.8L163.9,38L157,64.4z"
			/>
		<path class="st1" d="M195.1,62.2c0-8.9,1.5-15.5,4.6-19.9c3-4.4,7.5-6.6,13.3-6.6c4.2,0,7.7,1.8,10.6,5.4V18H238v73.9h-14.4v-5.5
			c-3.1,3.8-6,5.5-10.6,5.5c-5.8,0-10.1-2.2-13.2-6.5c-3-4.3-4.6-10.7-4.6-19.1V62.2z M209.6,65.8c0,5.3,0.6,9.1,1.7,11.2
			c1.2,2.1,3.1,3.2,5.8,3.2c2.8,0,5-1.3,6.4-3.8V51.6c-1.4-2.7-3.6-4-6.4-4c-2.6,0-4.6,1.1-5.8,3.2c-1.2,2.1-1.8,5.8-1.8,11.2V65.8z
			"/>
		<path class="st1" d="M259,37l0.4,5.1c3.2-4.1,7.5-6.1,12.7-6.1c5.5,0,9.4,2.5,11.6,7.4c3.1-4.9,7.6-7.4,13.5-7.4
			c9.6,0,14.5,6.6,14.8,19.9v36h-14.4V56.9c0-3.2-0.4-5.4-1.3-6.8c-0.9-1.4-2.4-2-4.5-2c-2.7,0-4.7,1.6-6,4.9l0.1,1.7v37.3h-14.4V57
			c0-3.1-0.4-5.4-1.3-6.8c-0.8-1.4-2.4-2.1-4.5-2.1c-2.5,0-4.4,1.3-5.9,4v39.9h-14.4V37H259z"/>
		<path class="st1" d="M319.4,25.7c0-2.2,0.7-4.1,2.1-5.5c1.4-1.4,3.3-2.1,5.7-2.1c2.4,0,4.3,0.7,5.7,2.1c1.4,1.4,2.1,3.2,2.1,5.5
			c0,2.2-0.7,4-2.1,5.5c-1.4,1.5-3.3,2.2-5.7,2.2c-2.4,0-4.3-0.7-5.7-2.2C320.2,29.8,319.4,27.9,319.4,25.7z M334.5,91.9h-14.4V37
			h14.4V91.9z"/>
		<path class="st1" d="M355.7,37l0.4,5.4c3.2-4.3,7.5-6.4,12.7-6.4c9.4,0,14.3,6.6,14.6,19.8v36.1H369v-35c0-3.1-0.5-5.4-1.4-6.8
			c-0.9-1.4-2.6-2.1-4.9-2.1c-2.6,0-4.6,1.3-6.1,4v39.9h-14.4V37H355.7z"/>
	</g>
	<path class="st1" d="M420,47h8.6c3.3,0,5.6-1.1,7.2-3.3c1.5-2.2,2.3-5.2,2.3-8.9c0-3.5-0.8-6.3-2.3-8.3c-1.6-2-3.7-3-6.3-3
		c-2.5,0-4.5,0.9-6,2.8c-1.6,1.9-2.3,4.2-2.3,7.1h-17.7c0-4.6,1.1-8.8,3.3-12.5c2.2-3.7,5.3-6.6,9.2-8.6c3.9-2.1,8.3-3.1,13.1-3.1
		c8.4,0,15,2.3,19.7,6.8s7.1,10.7,7.1,18.6c0,4-1.1,7.8-3.2,11.2c-2.2,3.4-5,6.1-8.5,7.9c4.3,1.8,7.5,4.5,9.6,8.1
		c2.1,3.6,3.2,7.8,3.2,12.7c0,7.9-2.6,14.2-7.7,19c-5.2,4.8-11.9,7.1-20.3,7.1c-7.8,0-14.1-2.3-19-7c-4.9-4.7-7.3-10.9-7.3-18.5
		h17.7c0,3.2,0.9,5.8,2.6,8c1.7,2.2,3.9,3.2,6.5,3.2c3,0,5.5-1.1,7.2-3.3c1.8-2.2,2.7-5.1,2.7-8.8c0-8.7-3.5-13.1-10.5-13.2H420V47z
		"/>
	<path class="st1" d="M496.7,9.2h18.4v62.3c0,8.7-2.5,15.7-7.4,21c-4.9,5.3-11.3,7.9-19,7.9c-8.4,0-14.8-2.5-19.5-7.4
		c-4.6-4.9-7-11.7-7-20.5h18.5c0,8.5,2.7,12.7,8,12.7c5.3,0,8-4.9,8-14.7V9.2z"/>
</g>
<g id="GUIAS" class="st2">
	<rect x="115.9" y="18.5" class="st3" width="18" height="68.7"/>
	<rect x="384.2" y="18.4" class="st3" width="18" height="68.7"/>
	<rect x="258" y="92" class="st3" width="68.7" height="18"/>
	<rect x="404.9" y="100.8" class="st3" width="68.7" height="9.2"/>
	<rect x="405.3" y="0" class="st3" width="68.7" height="9.2"/>
	<rect x="258" y="0" class="st3" width="68.7" height="18"/>
</g>
</svg>
