<?xml version="1.0" encoding="utf-8"?>
<!-- Generator: Adobe Illustrator 23.0.1, SVG Export Plug-In . SVG Version: 6.00 Build 0)  -->
<svg version="1.1" id="Capa_1" xmlns="http://www.w3.org/2000/svg" xmlns:xlink="http://www.w3.org/1999/xlink" x="0px" y="0px"
	 viewBox="0 0 300 67" style="enable-background:new 0 0 300 67;" xml:space="preserve">
<style type="text/css">
	.st0{fill:#FF003D;}
	.st1{fill:#5F6368;}
</style>
<g id="IMAGOTIPO_x5F_MONO">
	<g>
		<g>
			<path class="st0" d="M156.3,31.2L156.3,31.2c0,3.2-2.5,5.7-5.6,5.7c-2.2,0-4-1.2-5-3c-0.3-0.6-0.5-1.3-0.6-2.1
				c-0.2,0.8-0.2,1.6-0.3,2.4c0,0.3,0,0.7,0,1c0,1.5,0.2,3,0.6,4.5l-7.9,2.6c-0.5-1.4-1.1-2.8-1.9-4.1c-1.8-3.2-4.1-6-6.9-8.3
				l3.4-10.4c5.3-0.4,10.3-2.2,14.4-5l4.9,6.8c-2,1.7-3.7,3.8-4.9,6.2c1-1.1,2.5-1.9,4.2-1.9C153.8,25.6,156.3,28.1,156.3,31.2z"/>
			<path class="st0" d="M161.7,53.3v8.3c-5.3,0.2-10.3,1.8-14.5,4.5l-8.8-6.4c0.6-2.3,0.9-4.7,0.9-7.1c0-2.8-0.4-5.5-1.1-8l7.9-2.6
				c1,2.5,2.5,4.6,4.3,6.4c-0.4-0.8-0.7-1.7-0.7-2.7c0-3.1,2.5-5.6,5.6-5.6s5.6,2.5,5.6,5.6s-2.5,5.6-5.6,5.6c-0.4,0-0.8,0-1.2-0.1
				C156.4,52.3,159,53.1,161.7,53.3z"/>
			<path class="st0" d="M186.5,52.4c0,2.5,0.3,4.9,0.9,7.2l-8.9,6.4c-4.2-2.6-9.2-4.3-14.5-4.5v-8.3c2.8-0.2,5.4-1,7.7-2.3
				c-0.4,0.1-0.8,0.2-1.3,0.2c-3.1,0-5.6-2.5-5.6-5.6s2.5-5.6,5.6-5.6s5.6,2.5,5.6,5.6c0,1.1-0.3,2-0.8,2.9c1.9-1.8,3.5-4,4.5-6.5
				l7.8,2.6c-0.3,1.1-0.5,2.2-0.7,3.3C186.6,49.3,186.5,50.8,186.5,52.4z"/>
			<path class="st0" d="M197.1,29.8c-1.5,1.2-2.8,2.6-4,4.1c-2,2.5-3.6,5.3-4.8,8.4l-7.8-2.6c0.4-1.4,0.6-2.9,0.6-4.5
				c0-1.2-0.1-2.3-0.3-3.5c-0.3,2.9-2.7,5.1-5.6,5.1c-3.1,0-5.6-2.5-5.6-5.6c0-0.4,0-0.9,0.1-1.3c0.6-2.5,2.8-4.4,5.5-4.4
				c1.7,0,3.2,0.7,4.2,1.9c-1.1-2.5-2.8-4.6-4.9-6.3l4.9-6.8c4.1,2.8,9.1,4.6,14.4,5L197.1,29.8z"/>
			<path class="st0" d="M172.6,19.9c-2.1-1.3-4.6-2.3-7.2-2.6c1.9,0.9,3.1,2.8,3.1,5c0,3.1-2.5,5.6-5.6,5.6s-5.6-2.5-5.6-5.6
				c0-2.2,1.3-4.1,3.1-5c-2.6,0.4-5,1.3-7.1,2.6l-4.9-6.8c4-3.1,7.1-7.3,9-12h11.1c1.9,4.7,5.1,8.9,9,12L172.6,19.9z"/>
		</g>
	</g>
	<g>
		<g>
			<path class="st1" d="M25.2,35.9c-0.3,1.4-0.5,2.8-0.7,4.3c-1.4,0.2-2.6,0.4-3.8,0.5s-2.1,0.1-2.9,0.1c-1.8,0-3.5-0.3-5.2-0.8
				c-1.6-0.5-3.1-1.3-4.4-2.4c-1.3-1.1-2.3-2.4-2.9-4c-0.6-1.6-0.9-3.2-0.9-5.1c0-2,0.4-3.8,1.1-5.5s1.7-3.1,3.1-4.3
				c1.3-1.2,2.9-2,4.7-2.6s3.7-0.9,5.7-0.9c1.9,0,4.1,0.2,6.4,0.7c0,1.1,0.1,1.8,0.1,2.3l0.1,1.9c-1.4-0.4-2.5-0.6-3.4-0.7
				s-1.8-0.2-2.6-0.2c-1.3,0-2.5,0.2-3.7,0.6s-2.2,1-3.1,1.9s-1.6,1.9-2.1,3.1S10,27.3,10,28.6c0,1.6,0.3,3,0.9,4.2
				c0.6,1.2,1.6,2.2,2.9,3s3,1.2,4.9,1.2C20.5,37,22.7,36.6,25.2,35.9z"/>
			<path class="st1" d="M29.8,26.1c0.2-0.9,0.3-1.5,0.3-1.8c0-0.4,0.1-0.9,0.2-1.6c1.6-0.4,3.1-0.7,4.3-0.8s2.5-0.2,3.6-0.2
				c1.3,0,2.5,0.2,3.6,0.5s2,0.8,2.6,1.5s0.9,1.6,0.9,2.9c0,0.7-0.1,2.4-0.3,5.2s-0.3,5.7-0.3,8.7c-0.9,0-1.8,0-2.5,0s-1.6,0-2.6,0
				c0.2-1.5,0.3-3.1,0.4-5.1l0.2-4.5c-0.5,0.3-0.8,0.5-1,0.6s-0.5,0.2-0.8,0.3c-0.3,0.1-0.8,0.3-1.6,0.5s-1.4,0.4-1.8,0.5
				c-0.5,0.2-0.9,0.3-1.2,0.5c-0.4,0.2-0.7,0.4-0.9,0.7c-0.3,0.2-0.4,0.5-0.6,0.8c-0.1,0.3-0.2,0.6-0.2,0.9c0,0.5,0.1,0.9,0.4,1.3
				c0.3,0.4,0.7,0.6,1.1,0.8c0.4,0.1,1,0.2,1.6,0.2c0.4,0,0.8,0,1.2-0.1s1-0.2,1.7-0.5c-0.3,0.7-0.5,1.7-0.9,3.1
				c-0.9,0.1-1.5,0.2-2,0.3c-0.5,0-1,0.1-1.4,0.1c-1.5,0-2.8-0.2-3.7-0.6c-1-0.4-1.7-1.1-2.2-1.9c-0.5-0.9-0.7-1.8-0.7-2.7
				c0-0.5,0.1-1,0.3-1.5c0.2-0.5,0.4-1,0.8-1.4c0.3-0.4,0.8-0.8,1.4-1.2c0.6-0.4,1.4-0.8,2.4-1.1c1-0.4,2.4-0.7,4.2-1.1
				c0.5-0.1,0.9-0.2,1.4-0.4c0.5-0.1,0.9-0.3,1.2-0.4s0.6-0.3,0.8-0.5s0.4-0.4,0.5-0.7c0.1-0.2,0.2-0.5,0.2-0.7
				c0-0.5-0.2-0.9-0.5-1.2c-0.3-0.3-0.7-0.5-1.2-0.7c-0.5-0.1-1-0.2-1.6-0.2C34.9,24.5,32.5,25,29.8,26.1z"/>
			<path class="st1" d="M49.1,40.4c0.2-2,0.3-5.1,0.5-9.2s0.3-7.1,0.3-9.2c1,0,1.9,0,2.5,0c0.7,0,1.5,0,2.4,0l-0.1,3
				c0.4-0.6,0.7-1,1.1-1.4c0.3-0.4,0.7-0.7,1.2-1s1.1-0.5,1.8-0.7s1.4-0.3,2.1-0.3c0.5,0,1.1,0.1,1.6,0.2s1,0.2,1.4,0.4
				c0.4,0.2,0.8,0.4,1.1,0.6s0.5,0.5,0.7,0.8s0.4,0.7,0.7,1.3c0.3-0.4,0.5-0.8,0.7-1.1c0.2-0.3,0.5-0.6,0.9-0.9s0.8-0.6,1.2-0.8
				c0.5-0.2,1-0.4,1.5-0.5s1.2-0.2,1.8-0.2c1,0,2,0.2,3,0.5s1.7,0.9,2.2,1.6s0.8,1.7,0.8,2.8c0,0.6,0,1.4-0.1,2.5S78.1,32,78,34.6
				c-0.1,2.5-0.2,4.5-0.2,5.9c-0.9,0-1.7,0-2.3,0c-0.8,0-1.7,0-2.8,0c0.1-1.6,0.2-3.2,0.3-4.9l0.2-4.1c0.1-1,0.1-1.9,0.1-2.7
				c0-0.9-0.1-1.5-0.4-2c-0.3-0.4-0.6-0.8-1-0.9c-0.4-0.2-0.9-0.3-1.4-0.3s-1,0.1-1.5,0.3c-0.4,0.2-0.8,0.5-1.2,1
				c-0.4,0.5-0.7,1-0.9,1.6c-0.2,0.6-0.4,1.5-0.4,2.6c-0.1,1.1-0.2,2.5-0.2,4.3l-0.1,5c-1,0-1.8,0-2.5,0s-1.5,0-2.7,0
				c0.1-0.9,0.2-2.8,0.4-5.7s0.2-4.8,0.2-5.8c0-0.5,0-1-0.1-1.3c-0.1-0.4-0.3-0.7-0.5-1c-0.3-0.3-0.6-0.6-0.9-0.7s-0.8-0.2-1.2-0.2
				c-0.8,0-1.6,0.3-2.2,0.8c-0.6,0.6-1.1,1.3-1.4,2.2c-0.3,0.9-0.5,2.7-0.6,5.4s-0.2,4.8-0.2,6.4c-1.1,0-1.9,0-2.5,0
				C51.2,40.4,50.3,40.4,49.1,40.4z"/>
			<path class="st1" d="M81.4,48.7c0.3-3.4,0.6-7.7,0.8-13c0.2-5.3,0.4-9.7,0.4-13c2.3-0.4,4.1-0.7,5.3-0.8c1.3-0.1,2.5-0.2,3.7-0.2
				c1.6,0,3.1,0.2,4.5,0.6s2.4,1,3.2,1.9c0.8,0.9,1.4,1.9,1.8,3.1s0.6,2.4,0.6,3.7s-0.2,2.6-0.6,3.8s-0.9,2.3-1.7,3.3
				c-0.8,1-1.7,1.7-2.7,2.1s-2.1,0.7-3.3,0.7c-0.7,0-1.4-0.1-2.1-0.3s-1.3-0.4-1.8-0.7s-1-0.6-1.3-0.8c-0.3-0.3-0.8-0.7-1.3-1.3
				l-0.3,7.9v1.2c0,0.2,0,0.8,0,1.8c-1.1,0-2,0-2.6,0L81.4,48.7z M87.5,26c-0.1,0.6-0.1,1.2-0.2,1.7l-0.1,2c0,0.9-0.1,1.5-0.1,1.9
				c0,0.7,0.1,1.4,0.2,2.1c0.2,0.7,0.5,1.3,0.9,1.9c0.5,0.6,1,1,1.6,1.3s1.3,0.4,1.9,0.4c0.9,0,1.8-0.3,2.5-0.8
				c0.8-0.5,1.3-1.3,1.7-2.3c0.4-1,0.6-2.1,0.6-3.2c0-1.3-0.2-2.3-0.7-3.2c-0.5-0.9-1.1-1.5-1.8-1.9c-0.8-0.4-1.6-0.6-2.6-0.6
				C90.4,25.2,89,25.5,87.5,26z"/>
			<path class="st1" d="M114.4,21.6c1.4,0,2.7,0.2,4,0.6s2.3,1,3.2,1.8c0.9,0.8,1.5,1.8,2,3c0.4,1.2,0.7,2.4,0.7,3.7
				c0,1.4-0.2,2.7-0.7,4s-1.1,2.4-2,3.3c-0.9,0.9-2,1.6-3.3,2.1s-2.7,0.7-4.3,0.7c-1.4,0-2.7-0.2-4-0.6c-1.3-0.4-2.3-1-3.2-1.9
				c-0.9-0.8-1.6-1.8-2-3c-0.5-1.2-0.7-2.4-0.7-3.7s0.2-2.6,0.6-3.8c0.4-1.2,1.1-2.3,2-3.2c0.9-0.9,2-1.7,3.4-2.2
				S112.9,21.6,114.4,21.6z M114.4,25.4c-1,0-2,0.3-2.8,0.8s-1.4,1.3-1.8,2.3s-0.6,2.1-0.6,3.3c0,1,0.2,2,0.5,2.8
				c0.3,0.8,0.9,1.5,1.6,2s1.6,0.8,2.7,0.8s2-0.3,2.8-0.8s1.4-1.3,1.8-2.3s0.6-2.1,0.6-3.4c0-1-0.2-1.9-0.5-2.7
				c-0.3-0.8-0.8-1.5-1.6-2C116.3,25.6,115.4,25.4,114.4,25.4z"/>
		</g>
	</g>
	<g>
		<g>
			<path class="st1" d="M202.3,41.5c0.2-2.4,0.4-4.3,0.4-5.7c0.1-2.4,0.3-5.8,0.4-10.3c0.1-3.3,0.2-5.6,0.2-7v-1.7
				c3.5,0,6.5,0,9.1,0h5.1h3c-0.1,1.8-0.2,3.1-0.2,3.9l-2.6-0.1h-1.1h-1.4h-2.7h-3.7l-0.2,6.5l3.1,0.1c2.3,0,3.8,0,4.5,0h2.5
				c-0.1,1.4-0.1,2.7-0.2,3.8c-2.1,0-3.8-0.1-5-0.1c-1.6,0-3.3,0-5.1,0.1l-0.2,8v1.6v0.9h-2.8C205.2,41.4,204.2,41.5,202.3,41.5z"/>
			<path class="st1" d="M239.2,37.4c-0.2,0.7-0.4,2-0.7,3.8c-1.3,0.3-2.4,0.5-3.3,0.6c-0.9,0.1-1.8,0.1-2.7,0.1
				c-1.6,0-3-0.2-4.2-0.5s-2.3-0.9-3.3-1.7c-0.9-0.8-1.6-1.9-2.1-3.1c-0.4-1.2-0.7-2.5-0.7-3.8c0-1.5,0.3-2.9,0.8-4.3
				s1.2-2.5,2.2-3.4c0.9-0.9,2-1.5,3.2-1.9s2.4-0.5,3.7-0.5c1.2,0,2.4,0.2,3.5,0.5s2,0.8,2.8,1.5s1.3,1.5,1.7,2.5s0.6,2.1,0.6,3.3
				c0,0.6-0.1,1.1-0.2,1.7h-13.2c0,0.4,0,0.8,0,1.1c0,0.8,0.1,1.5,0.4,2.2c0.3,0.7,0.7,1.2,1.2,1.7s1.2,0.8,1.9,1s1.5,0.3,2.2,0.3
				c0.8,0,1.7-0.1,2.7-0.3C236.7,38.1,237.9,37.8,239.2,37.4z M227.5,30.1h8.4c0-0.6,0-1-0.1-1.3c0-0.3-0.1-0.6-0.2-0.9
				c-0.1-0.4-0.3-0.7-0.5-0.9c-0.2-0.3-0.5-0.5-0.8-0.7s-0.6-0.3-1-0.4s-0.8-0.1-1.2-0.1c-0.5,0-1,0.1-1.5,0.2
				c-0.5,0.2-0.9,0.4-1.3,0.7c-0.4,0.3-0.7,0.6-1,1c-0.2,0.4-0.4,0.7-0.6,1.1C227.8,29.1,227.7,29.5,227.5,30.1z"/>
			<path class="st1" d="M243.2,41.5l0.5-8.6l0.1-5c0-1,0-2.1,0-3.1c0-0.2,0-0.8,0-1.7c1.1,0,1.9,0,2.5,0s1.4,0,2.4,0l-0.1,2.5
				c0.5-0.6,0.9-1.1,1.2-1.5c0.3-0.3,0.7-0.6,1.1-0.8c0.4-0.2,0.9-0.4,1.3-0.5c0.5-0.1,1-0.2,1.5-0.2s1,0.1,1.5,0.2
				c0,1.1,0.1,2.5,0.2,4.3c-0.7-0.2-1.4-0.3-1.9-0.3c-0.7,0-1.3,0.1-1.9,0.3c-0.5,0.2-1,0.5-1.4,1c-0.4,0.4-0.8,1-1.1,1.6
				c-0.2,0.5-0.4,1.2-0.5,2c-0.1,0.6-0.2,1.7-0.2,3.2c-0.1,1.5-0.1,3-0.1,4.5c0,0.6,0,1.3,0.1,2.1c-0.9,0-1.8,0-2.5,0
				C245.1,41.4,244.3,41.5,243.2,41.5z"/>
			<path class="st1" d="M257.3,41.5c0.2-1.8,0.3-3.3,0.4-4.5c0.1-1.9,0.2-4.1,0.3-6.7c0.1-2.5,0.2-4.9,0.2-7.2c1.2,0,2.1,0,2.6,0
				s1.4,0,2.6,0c-0.2,2.1-0.3,4.1-0.4,6s-0.2,4.1-0.2,6.5c0,2.5-0.1,4.4-0.1,5.8c-1.1,0-2,0-2.6,0C259.5,41.4,258.6,41.5,257.3,41.5
				z M258.3,20c0-1.2,0.1-2.2,0.1-2.9v-0.6c1.1,0,2,0,2.7,0c0.9,0,1.8,0,2.6,0c0,0.3-0.1,0.6-0.1,1l-0.1,2.4c-0.9,0-1.8,0-2.5,0
				C260.2,19.9,259.3,20,258.3,20z"/>
			<path class="st1" d="M268.2,27.1c0.2-0.9,0.3-1.5,0.3-1.8c0-0.4,0.1-0.9,0.2-1.6c1.6-0.4,3.1-0.7,4.3-0.8
				c1.3-0.2,2.5-0.2,3.6-0.2c1.3,0,2.5,0.2,3.6,0.5s2,0.8,2.6,1.5s0.9,1.6,0.9,2.9c0,0.7-0.1,2.4-0.3,5.2c-0.2,2.8-0.3,5.7-0.3,8.7
				c-0.9,0-1.8,0-2.5,0s-1.6,0-2.6,0c0.2-1.5,0.3-3.1,0.4-5.1l0.2-4.5c-0.5,0.3-0.8,0.5-1.1,0.6c-0.2,0.1-0.5,0.2-0.8,0.3
				s-0.8,0.3-1.6,0.5c-0.8,0.2-1.4,0.4-1.8,0.5c-0.5,0.2-0.9,0.3-1.2,0.5c-0.4,0.2-0.7,0.4-0.9,0.7c-0.3,0.2-0.4,0.5-0.5,0.8
				s-0.2,0.6-0.2,0.9c0,0.5,0.1,0.9,0.4,1.3c0.3,0.4,0.7,0.6,1.1,0.8c0.4,0.1,1,0.2,1.6,0.2c0.4,0,0.8,0,1.2-0.1
				c0.4-0.1,1-0.2,1.7-0.4c-0.3,0.7-0.5,1.7-0.9,3.1c-0.9,0.1-1.5,0.2-2,0.3c-0.5,0-1,0.1-1.4,0.1c-1.5,0-2.8-0.2-3.7-0.6
				c-1-0.4-1.7-1.1-2.2-1.9c-0.5-0.9-0.7-1.8-0.7-2.7c0-0.5,0.1-1,0.3-1.5c0.2-0.5,0.4-1,0.8-1.4s0.8-0.8,1.4-1.2s1.4-0.8,2.4-1.1
				c1-0.4,2.4-0.7,4.2-1.1c0.5-0.1,0.9-0.2,1.4-0.4c0.5-0.1,0.9-0.3,1.2-0.4c0.3-0.1,0.5-0.3,0.8-0.5c0.2-0.2,0.4-0.4,0.5-0.7
				c0.1-0.2,0.2-0.5,0.2-0.7c0-0.5-0.2-0.9-0.5-1.2c-0.3-0.3-0.7-0.6-1.2-0.7s-1-0.2-1.6-0.2C273.3,25.6,270.9,26.1,268.2,27.1z"/>
			<path class="st1" d="M287.5,41.5c0.2-2,0.4-5.7,0.7-11c0.3-5.3,0.4-9.8,0.5-13.7c1.3,0,2.1,0,2.7,0c0.7,0,1.6,0,2.6,0l-0.4,6.6
				L293,38.1l-0.1,3.4c-1,0-1.8,0-2.5,0C290.1,41.4,289.1,41.5,287.5,41.5z"/>
		</g>
	</g>
	<g>
		<g>
			<path class="st1" d="M222.7,56.9c0-0.7-0.1-1.4-0.2-1.9c1.1,0.4,2.1,0.6,3.1,0.6c0.5,0,0.9-0.1,1.3-0.2c0.4-0.1,0.7-0.4,0.9-0.6
				c0.2-0.3,0.3-0.6,0.3-1c0-0.3-0.1-0.6-0.3-0.8s-0.5-0.4-0.9-0.5s-0.9-0.2-1.5-0.2c-0.4,0-0.8,0-1.2,0.1c0.1-0.6,0.1-1.2,0.1-1.8
				c0.3,0.1,0.6,0.1,0.9,0.1c0.5,0,0.9,0,1.3-0.1c0.4-0.1,0.8-0.3,1-0.6s0.4-0.6,0.4-0.9c0-0.1,0-0.3-0.1-0.4s-0.1-0.2-0.2-0.3
				c-0.1-0.1-0.2-0.2-0.3-0.3s-0.2-0.1-0.4-0.2c-0.1-0.1-0.3-0.1-0.5-0.1s-0.5,0-0.7,0c-0.4,0-0.7,0-1.1,0.1c-0.4,0-0.9,0.1-1.4,0.3
				l0.1-0.7l0.2-1c0.6-0.1,1.1-0.1,1.6-0.2c0.4,0,0.9,0,1.4,0c0.6,0,1.1,0,1.6,0.1s1,0.2,1.3,0.5c0.4,0.2,0.6,0.5,0.8,0.9
				s0.3,0.8,0.3,1.2c0,0.3,0,0.6-0.1,0.8c-0.1,0.3-0.2,0.5-0.4,0.7s-0.3,0.4-0.5,0.6s-0.4,0.3-0.6,0.4c-0.2,0.1-0.5,0.2-0.8,0.3
				c0.4,0.1,0.7,0.1,0.9,0.2c0.2,0.1,0.4,0.2,0.6,0.3c0.2,0.1,0.4,0.3,0.5,0.5s0.2,0.4,0.3,0.7s0.1,0.5,0.1,0.8c0,0.5-0.1,1-0.4,1.4
				c-0.2,0.4-0.6,0.8-1,1.1c-0.5,0.3-1,0.5-1.5,0.6c-0.6,0.1-1.2,0.2-1.8,0.2c-0.5,0-0.9,0-1.4-0.1C224,57.1,223.4,57,222.7,56.9z"
				/>
			<path class="st1" d="M244.5,57.1c-0.4,0-0.8,0-1,0c-0.3,0-0.6,0-1.1,0l0.1-1.4c-0.2,0.3-0.4,0.5-0.6,0.7
				c-0.2,0.2-0.4,0.3-0.6,0.5c-0.2,0.1-0.5,0.2-0.8,0.3s-0.6,0.1-0.9,0.1c-0.5,0-1-0.1-1.4-0.3s-0.8-0.4-1.1-0.8
				c-0.3-0.3-0.5-0.7-0.7-1.2c-0.1-0.5-0.2-1-0.2-1.5c0-0.7,0.1-1.4,0.4-2s0.6-1.2,1.1-1.6c0.5-0.4,1-0.7,1.6-0.9s1.2-0.3,1.9-0.3
				c0.5,0,1,0,1.6,0.1c0-0.7,0.1-1.4,0.1-2.2v-0.5c0.5,0,0.9,0,1.2,0c0.4,0,0.7,0,1.2,0c-0.1,1.4-0.2,3.2-0.3,5.5
				C244.6,54,244.5,55.8,244.5,57.1z M242.6,50.4c-0.4-0.1-0.8-0.2-1.2-0.2s-0.8,0.1-1.2,0.2c-0.4,0.1-0.7,0.3-1,0.6
				s-0.5,0.6-0.7,1.1c-0.2,0.4-0.2,0.9-0.2,1.3c0,0.4,0.1,0.8,0.2,1.1c0.1,0.3,0.4,0.6,0.7,0.8s0.7,0.3,1,0.3s0.6-0.1,0.8-0.2
				c0.2-0.1,0.5-0.3,0.7-0.5s0.4-0.5,0.5-0.8s0.2-0.8,0.3-1.4C242.5,52.4,242.5,51.6,242.6,50.4z"/>
			<path class="st1" d="M253.6,55.3c-0.1,0.3-0.2,0.9-0.3,1.7c-0.6,0.1-1.1,0.2-1.5,0.2s-0.8,0.1-1.2,0.1c-0.7,0-1.3-0.1-1.9-0.2
				c-0.6-0.1-1-0.4-1.4-0.8s-0.7-0.8-0.9-1.4c-0.2-0.5-0.3-1.1-0.3-1.7c0-0.7,0.1-1.3,0.3-1.9c0.2-0.6,0.6-1.1,1-1.5
				s0.9-0.7,1.4-0.8c0.5-0.2,1.1-0.2,1.6-0.2s1.1,0.1,1.6,0.2c0.5,0.1,0.9,0.4,1.2,0.7s0.6,0.7,0.8,1.1c0.2,0.4,0.3,0.9,0.3,1.4
				c0,0.3,0,0.5-0.1,0.8h-5.9c0,0.2,0,0.4,0,0.5c0,0.4,0.1,0.7,0.2,1s0.3,0.6,0.5,0.8s0.5,0.4,0.8,0.5s0.6,0.1,1,0.1s0.8,0,1.2-0.1
				C252.5,55.6,253,55.5,253.6,55.3z M248.5,52h3.7c0-0.3,0-0.4,0-0.6c0-0.1-0.1-0.3-0.1-0.4c-0.1-0.2-0.1-0.3-0.2-0.4
				c-0.1-0.1-0.2-0.2-0.3-0.3s-0.3-0.1-0.4-0.2c-0.2,0-0.4-0.1-0.5-0.1c-0.2,0-0.4,0-0.7,0.1c-0.2,0.1-0.4,0.2-0.6,0.3
				c-0.2,0.1-0.3,0.3-0.4,0.4c-0.1,0.2-0.2,0.3-0.2,0.5C248.6,51.6,248.5,51.8,248.5,52z"/>
			<path class="st1" d="M258.3,56.9c0-0.6-0.1-1.2-0.1-1.9c0.6,0.2,1,0.3,1.4,0.4c0.3,0.1,0.7,0.1,1,0.1s0.5,0,0.7-0.1
				s0.4-0.1,0.6-0.2c0.1-0.1,0.2-0.2,0.3-0.3c0.1-0.1,0.2-0.3,0.3-0.5c0.1-0.2,0.1-0.5,0.2-0.8c0.1-0.4,0.1-1.2,0.1-2.2
				c0-0.8,0.1-1.7,0.1-2.7c0-0.8,0-1.7,0-2.6c0.6,0,1,0,1.2,0s0.6,0,1.3,0l-0.2,3.4c0,0.8-0.1,2-0.1,3.4c0,1-0.1,1.7-0.2,2
				s-0.1,0.5-0.2,0.7s-0.2,0.4-0.4,0.5c-0.2,0.2-0.4,0.3-0.6,0.5c-0.3,0.2-0.7,0.3-1,0.4c-0.4,0.1-0.9,0.2-1.3,0.2
				C260.4,57.3,259.4,57.1,258.3,56.9z"/>
			<path class="st1" d="M275.1,57.1c-0.5,0-0.8,0-1.1,0c-0.3,0-0.7,0-1.1,0v-1.3c-0.1,0.2-0.3,0.4-0.4,0.5s-0.3,0.3-0.4,0.4
				c-0.2,0.1-0.4,0.2-0.6,0.3s-0.5,0.1-0.7,0.2c-0.3,0.1-0.6,0.1-0.9,0.1c-0.6,0-1.1-0.1-1.6-0.3c-0.4-0.2-0.8-0.4-1.1-0.8
				c-0.3-0.4-0.4-0.9-0.4-1.5v-0.2l0.1-2.1l0.1-2.7c0-0.2,0-0.5,0-0.8c0.5,0,0.9,0,1.2,0c0.3,0,0.7,0,1.1,0l-0.3,3.6
				c0,0.3,0,0.5,0,0.7s0,0.3,0,0.4c0,0.4,0.1,0.7,0.2,1s0.3,0.4,0.6,0.6c0.3,0.1,0.6,0.2,0.9,0.2s0.6-0.1,0.9-0.2
				c0.3-0.1,0.5-0.3,0.6-0.4c0.2-0.2,0.3-0.5,0.4-0.8c0.1-0.2,0.2-0.6,0.2-1c0-0.3,0.1-0.8,0.1-1.5c0-0.9,0.1-1.7,0.1-2.6
				c0.5,0,0.9,0,1.2,0c0.3,0,0.7,0,1.1,0c-0.1,0.8-0.1,1.7-0.2,2.9c-0.1,1.1-0.1,2.1-0.1,2.8C275.1,55.4,275.1,56.2,275.1,57.1z"/>
			<path class="st1" d="M276.9,57.1c0.1-0.9,0.2-2.5,0.3-4.9c0.1-2.3,0.2-4.4,0.2-6.1c0.6,0,0.9,0,1.2,0c0.3,0,0.7,0,1.1,0l-0.2,2.9
				l-0.3,6.5V57c-0.4,0-0.8,0-1.1,0C278.1,57.1,277.6,57.1,276.9,57.1z"/>
			<path class="st1" d="M281.1,57.1c0.1-0.8,0.1-1.5,0.2-2c0.1-0.9,0.1-1.8,0.1-2.9c0-1.1,0.1-2.2,0.1-3.2c0.5,0,0.9,0,1.2,0
				c0.2,0,0.6,0,1.2,0c-0.1,0.9-0.1,1.8-0.2,2.7c0,0.8-0.1,1.8-0.1,2.9c0,1.1,0,1.9,0,2.6c-0.5,0-0.9,0-1.2,0
				C282.1,57.1,281.7,57.1,281.1,57.1z M281.6,47.6c0-0.5,0-1,0-1.3V46c0.5,0,0.9,0,1.2,0c0.4,0,0.8,0,1.2,0c0,0.1,0,0.3,0,0.5v1.1
				c-0.4,0-0.8,0-1.1,0C282.4,47.5,282,47.5,281.6,47.6z"/>
			<path class="st1" d="M289.7,48.8c0.6,0,1.2,0.1,1.8,0.3c0.6,0.2,1,0.5,1.4,0.8c0.4,0.4,0.7,0.8,0.9,1.3c0.2,0.5,0.3,1.1,0.3,1.6
				c0,0.6-0.1,1.2-0.3,1.8c-0.2,0.6-0.5,1.1-0.9,1.5s-0.9,0.7-1.5,0.9s-1.2,0.3-1.9,0.3c-0.6,0-1.2-0.1-1.8-0.3
				c-0.6-0.2-1-0.5-1.4-0.8c-0.4-0.4-0.7-0.8-0.9-1.3c-0.2-0.5-0.3-1.1-0.3-1.7c0-0.6,0.1-1.1,0.3-1.7c0.2-0.5,0.5-1,0.9-1.4
				s0.9-0.7,1.5-1C288.4,48.9,289,48.8,289.7,48.8z M289.7,50.4c-0.5,0-0.9,0.1-1.2,0.3c-0.4,0.2-0.6,0.6-0.8,1
				c-0.2,0.4-0.3,0.9-0.3,1.5c0,0.5,0.1,0.9,0.2,1.2c0.1,0.4,0.4,0.7,0.7,0.9c0.3,0.2,0.7,0.3,1.2,0.3s0.9-0.1,1.2-0.3
				c0.4-0.2,0.6-0.6,0.8-1c0.2-0.5,0.3-0.9,0.3-1.5c0-0.4-0.1-0.8-0.2-1.2s-0.4-0.7-0.7-0.9S290.2,50.4,289.7,50.4z"/>
		</g>
	</g>
</g>
</svg>
