<?xml version="1.0" encoding="utf-8"?>
<!-- Generator: Adobe Illustrator 16.0.0, SVG Export Plug-In . SVG Version: 6.00 Build 0)  -->
<!DOCTYPE svg PUBLIC "-//W3C//DTD SVG 1.1//EN" "http://www.w3.org/Graphics/SVG/1.1/DTD/svg11.dtd">
<svg version="1.1" id="Capa_1" xmlns="http://www.w3.org/2000/svg" xmlns:xlink="http://www.w3.org/1999/xlink" x="0px" y="0px"
	 width="300px" height="67px" viewBox="0 0 300 67" enable-background="new 0 0 300 67" xml:space="preserve">
<g id="IMAGOTIPO_x5F_MONO">
	<g>
		<g>
			<path fill="#ff003d" d="M156.328,31.168v0.083c0,3.101-2.512,5.615-5.614,5.615c-2.159,0-4.031-1.218-4.976-2.993
				c-0.341-0.627-0.546-1.324-0.625-2.063c-0.152,0.778-0.248,1.57-0.29,2.375c-0.012,0.33-0.026,0.67-0.026,1.014
				c0,1.54,0.196,3.031,0.561,4.457l-7.913,2.611c-0.523-1.42-1.149-2.785-1.874-4.093c-1.764-3.169-4.099-5.999-6.86-8.322
				l3.374-10.426c5.323-0.369,10.251-2.151,14.427-4.978l4.893,6.807c-2.049,1.688-3.72,3.819-4.874,6.247
				c1.024-1.149,2.514-1.872,4.182-1.872C153.788,25.633,156.288,28.106,156.328,31.168z"/>
			<path fill="#ff003d" d="M161.736,53.254l-0.004,8.271c-5.328,0.199-10.31,1.809-14.545,4.476l-8.8-6.367
				c0.574-2.296,0.874-4.688,0.874-7.146c0-2.783-0.382-5.473-1.104-8.023l7.912-2.611c0.974,2.451,2.462,4.631,4.327,6.422
				c-0.448-0.803-0.709-1.743-0.709-2.743c0-3.104,2.514-5.614,5.614-5.614c3.104,0,5.618,2.514,5.618,5.614
				s-2.515,5.616-5.618,5.616c-0.408,0-0.791-0.045-1.173-0.123C156.408,52.293,158.994,53.081,161.736,53.254z"/>
			<path fill="#ff003d" d="M186.502,52.389c0,2.479,0.314,4.896,0.891,7.2l-8.854,6.399c-4.231-2.641-9.187-4.26-14.49-4.463
				l0.002-8.271c2.779-0.171,5.375-0.963,7.687-2.261c-0.407,0.095-0.834,0.151-1.271,0.151c-3.104,0-5.613-2.52-5.613-5.621
				c0-3.103,2.512-5.612,5.613-5.612s5.617,2.512,5.617,5.612c0,1.056-0.286,2.039-0.793,2.871c1.93-1.795,3.461-4.024,4.451-6.521
				l7.843,2.587c-0.299,1.077-0.539,2.181-0.715,3.3C186.625,49.271,186.502,50.816,186.502,52.389z"/>
			<path fill="#ff003d" d="M197.052,29.76c-1.462,1.23-2.801,2.598-4.004,4.085c-2.019,2.509-3.644,5.345-4.765,8.421l-7.836-2.584
				c0.365-1.438,0.563-2.938,0.563-4.479c0-1.191-0.109-2.337-0.326-3.458c-0.262,2.872-2.682,5.109-5.604,5.109
				c-3.104,0-5.617-2.517-5.617-5.617c0-0.439,0.043-0.864,0.148-1.259c0.576-2.501,2.802-4.373,5.479-4.373
				c1.683,0,3.197,0.736,4.224,1.913c-1.146-2.452-2.814-4.588-4.877-6.287l4.896-6.809c4.149,2.82,9.071,4.599,14.372,4.978
				L197.052,29.76z"/>
			<path fill="#ff003d" d="M172.551,19.899c-2.13-1.343-4.561-2.255-7.16-2.616c1.857,0.915,3.129,2.829,3.129,5.042
				c0,3.104-2.515,5.617-5.615,5.617c-3.104,0-5.615-2.514-5.615-5.617c0-2.213,1.271-4.126,3.113-5.042
				c-2.596,0.354-5.008,1.267-7.129,2.611l-4.912-6.83c3.955-3.148,7.082-7.29,9.007-12.042h11.068
				c1.936,4.749,5.064,8.893,9.021,12.045L172.551,19.899z"/>
		</g>
	</g>
	<g>
		<g>
			<path fill="#FFFFFF" d="M25.248,35.914c-0.265,1.408-0.494,2.84-0.686,4.295c-1.372,0.241-2.629,0.41-3.772,0.506
				s-2.123,0.145-2.941,0.145c-1.805,0-3.529-0.252-5.171-0.758c-1.643-0.504-3.123-1.302-4.44-2.392
				c-1.317-1.089-2.271-2.41-2.86-3.962c-0.59-1.552-0.885-3.249-0.885-5.089c0-1.997,0.354-3.844,1.064-5.541
				c0.71-1.697,1.729-3.128,3.06-4.296c1.33-1.166,2.903-2.036,4.72-2.608c1.816-0.571,3.711-0.857,5.685-0.857
				c1.949,0,4.079,0.223,6.389,0.668c0.037,1.071,0.072,1.829,0.108,2.274l0.126,1.931c-1.359-0.361-2.491-0.607-3.393-0.74
				c-0.902-0.132-1.763-0.197-2.581-0.197c-1.287,0-2.523,0.195-3.708,0.585c-1.185,0.391-2.232,1.014-3.141,1.868
				c-0.909,0.854-1.606,1.886-2.093,3.095s-0.731,2.47-0.731,3.782c0,1.564,0.301,2.966,0.903,4.205
				c0.601,1.238,1.566,2.242,2.896,3.014c1.33,0.77,2.975,1.155,4.937,1.155C20.549,36.997,22.721,36.635,25.248,35.914z"/>
			<path fill="#FFFFFF" d="M29.843,26.095c0.168-0.865,0.273-1.473,0.316-1.822c0.042-0.35,0.117-0.878,0.225-1.588
				c1.636-0.385,3.081-0.656,4.332-0.813c1.251-0.157,2.46-0.235,3.627-0.235c1.324,0,2.539,0.153,3.646,0.46
				c1.107,0.307,1.973,0.798,2.599,1.471c0.625,0.674,0.938,1.643,0.938,2.906c0,0.686-0.096,2.434-0.287,5.243
				c-0.192,2.811-0.305,5.713-0.341,8.708c-0.916-0.024-1.758-0.036-2.528-0.036c-0.735,0-1.596,0.012-2.583,0.036
				c0.158-1.456,0.286-3.14,0.383-5.054l0.237-4.493c-0.458,0.3-0.807,0.511-1.047,0.632c-0.241,0.12-0.512,0.232-0.813,0.333
				c-0.301,0.103-0.831,0.258-1.59,0.469c-0.758,0.21-1.367,0.394-1.824,0.55c-0.458,0.156-0.871,0.334-1.238,0.533
				c-0.368,0.199-0.677,0.421-0.931,0.667c-0.252,0.246-0.437,0.506-0.551,0.773c-0.114,0.271-0.171,0.563-0.171,0.875
				c0,0.506,0.147,0.941,0.442,1.313c0.295,0.367,0.665,0.623,1.11,0.767c0.445,0.146,0.968,0.217,1.57,0.217
				c0.386,0,0.792-0.03,1.219-0.09c0.426-0.06,1.001-0.21,1.723-0.451c-0.252,0.687-0.547,1.708-0.884,3.068
				c-0.855,0.146-1.535,0.235-2.04,0.271c-0.506,0.036-0.975,0.055-1.408,0.055c-1.517,0-2.762-0.201-3.736-0.61
				c-0.975-0.408-1.694-1.062-2.157-1.948c-0.463-0.891-0.694-1.785-0.694-2.688c0-0.521,0.09-1.028,0.271-1.533
				c0.18-0.505,0.445-0.969,0.795-1.39c0.349-0.421,0.8-0.827,1.354-1.218c0.554-0.39,1.354-0.77,2.402-1.137
				c1.047-0.367,2.432-0.737,4.153-1.11c0.458-0.096,0.933-0.213,1.427-0.352c0.494-0.138,0.888-0.273,1.183-0.406
				c0.295-0.133,0.551-0.304,0.767-0.514c0.217-0.211,0.376-0.43,0.479-0.659c0.102-0.228,0.153-0.463,0.153-0.704
				c0-0.47-0.153-0.867-0.46-1.192c-0.308-0.325-0.705-0.55-1.192-0.676c-0.488-0.126-1.027-0.188-1.616-0.188
				C34.912,24.525,32.492,25.048,29.843,26.095z"/>
			<path fill="#FFFFFF" d="M49.147,40.425c0.168-2.045,0.346-5.101,0.533-9.168c0.186-4.066,0.279-7.128,0.279-9.187
				c1.022,0.024,1.853,0.037,2.49,0.037c0.733,0,1.528-0.013,2.383-0.037l-0.139,2.905c0.385-0.565,0.737-1.025,1.055-1.38
				c0.319-0.354,0.73-0.683,1.236-0.984c0.505-0.301,1.097-0.539,1.777-0.713c0.68-0.174,1.381-0.262,2.104-0.262
				c0.541,0,1.063,0.052,1.569,0.153c0.505,0.103,0.966,0.247,1.381,0.434c0.415,0.188,0.77,0.401,1.064,0.641
				c0.295,0.241,0.544,0.508,0.749,0.803c0.204,0.295,0.427,0.731,0.668,1.308c0.265-0.421,0.508-0.772,0.73-1.055
				c0.222-0.283,0.521-0.575,0.894-0.875c0.373-0.301,0.788-0.554,1.245-0.759c0.458-0.204,0.972-0.364,1.543-0.478
				c0.571-0.114,1.164-0.171,1.777-0.171c1.047,0,2.034,0.171,2.96,0.514c0.926,0.343,1.654,0.885,2.184,1.625
				c0.529,0.74,0.794,1.658,0.794,2.752c0,0.577-0.042,1.426-0.125,2.545c-0.083,1.119-0.184,2.945-0.303,5.478
				c-0.119,2.533-0.184,4.491-0.195,5.875c-0.88-0.023-1.657-0.035-2.332-0.035c-0.795,0-1.729,0.012-2.801,0.035
				c0.108-1.552,0.211-3.176,0.308-4.873l0.218-4.133c0.06-1.046,0.09-1.932,0.09-2.653c0-0.859-0.136-1.51-0.406-1.952
				c-0.271-0.442-0.615-0.756-1.03-0.943c-0.415-0.188-0.881-0.282-1.399-0.282c-0.542,0-1.032,0.103-1.472,0.308
				c-0.439,0.206-0.848,0.538-1.228,0.998c-0.378,0.459-0.67,0.994-0.875,1.604c-0.205,0.611-0.354,1.466-0.449,2.567
				c-0.095,1.101-0.172,2.548-0.232,4.34l-0.125,5.018c-1-0.024-1.831-0.036-2.494-0.036c-0.663,0-1.548,0.012-2.657,0.036
				c0.084-0.926,0.204-2.821,0.36-5.686c0.156-2.863,0.234-4.794,0.234-5.793c0-0.529-0.042-0.978-0.126-1.345
				c-0.084-0.367-0.256-0.716-0.514-1.047c-0.259-0.331-0.563-0.575-0.911-0.731c-0.348-0.156-0.751-0.234-1.208-0.234
				c-0.842,0-1.581,0.277-2.219,0.83c-0.637,0.553-1.104,1.293-1.397,2.22c-0.295,0.926-0.508,2.729-0.64,5.406
				c-0.131,2.678-0.196,4.805-0.196,6.38c-1.105-0.024-1.938-0.036-2.503-0.036C51.158,40.389,50.275,40.4,49.147,40.425z"/>
			<path fill="#FFFFFF" d="M81.393,48.71c0.302-3.356,0.573-7.707,0.814-13.049c0.241-5.341,0.362-9.68,0.362-13.013
				c2.285-0.409,4.053-0.68,5.305-0.812c1.25-0.132,2.496-0.199,3.735-0.199c1.624,0,3.113,0.193,4.467,0.578
				c1.353,0.385,2.435,1.029,3.248,1.932c0.813,0.902,1.414,1.948,1.804,3.14c0.391,1.191,0.587,2.437,0.587,3.736
				c0,1.311-0.186,2.574-0.56,3.79c-0.372,1.215-0.943,2.312-1.713,3.276c-0.77,0.97-1.663,1.673-2.678,2.112
				c-1.015,0.439-2.125,0.658-3.327,0.658c-0.709,0-1.41-0.084-2.101-0.254c-0.692-0.168-1.299-0.393-1.822-0.666
				c-0.522-0.277-0.953-0.561-1.289-0.84c-0.337-0.283-0.764-0.707-1.281-1.272l-0.275,7.853l-0.018,1.229
				c-0.013,0.153-0.019,0.758-0.019,1.805c-1.108-0.012-1.963-0.021-2.565-0.021L81.393,48.71z M87.547,25.969
				c-0.085,0.65-0.146,1.209-0.183,1.678l-0.11,2.004c-0.048,0.864-0.072,1.5-0.072,1.908c0,0.733,0.076,1.435,0.227,2.107
				c0.15,0.672,0.452,1.291,0.904,1.854c0.452,0.563,0.989,0.994,1.61,1.289c0.621,0.293,1.263,0.44,1.926,0.44
				c0.917,0,1.752-0.263,2.505-0.784c0.754-0.523,1.335-1.289,1.746-2.298c0.41-1.009,0.615-2.084,0.615-3.226
				c0-1.261-0.227-2.327-0.678-3.199c-0.452-0.871-1.058-1.505-1.817-1.901c-0.76-0.396-1.622-0.595-2.586-0.595
				C90.38,25.247,89.018,25.488,87.547,25.969z"/>
			<path fill="#FFFFFF" d="M114.396,21.637c1.383,0,2.71,0.208,3.979,0.624s2.347,1.028,3.231,1.84
				c0.885,0.812,1.549,1.805,1.995,2.979c0.445,1.173,0.667,2.408,0.667,3.708c0,1.371-0.234,2.695-0.704,3.971
				c-0.47,1.276-1.149,2.38-2.039,3.312c-0.891,0.937-2,1.634-3.331,2.098c-1.329,0.462-2.745,0.691-4.25,0.691
				c-1.396,0-2.722-0.207-3.979-0.623c-1.258-0.411-2.332-1.034-3.222-1.864c-0.891-0.83-1.567-1.845-2.031-3.032
				c-0.462-1.188-0.694-2.437-0.694-3.736c0-1.324,0.211-2.587,0.632-3.791c0.421-1.203,1.08-2.273,1.976-3.212
				c0.897-0.939,2.043-1.667,3.438-2.184S112.904,21.637,114.396,21.637z M114.395,25.355c-1.044,0-1.976,0.256-2.796,0.767
				c-0.82,0.511-1.434,1.272-1.834,2.283c-0.402,1.011-0.603,2.112-0.603,3.303c0,1.046,0.164,1.979,0.494,2.797
				c0.33,0.819,0.869,1.479,1.619,1.985c0.749,0.505,1.639,0.758,2.671,0.758c1.055,0,1.98-0.264,2.778-0.786
				c0.797-0.524,1.396-1.293,1.798-2.312c0.401-1.019,0.604-2.137,0.604-3.364c0-0.999-0.157-1.907-0.469-2.726
				c-0.311-0.818-0.836-1.474-1.573-1.968C116.346,25.602,115.45,25.355,114.395,25.355z"/>
		</g>
	</g>
	<g>
		<g>
			<path fill="#FFFFFF" d="M202.337,41.479c0.218-2.355,0.362-4.252,0.437-5.686c0.137-2.394,0.271-5.823,0.418-10.287
				c0.107-3.297,0.162-5.625,0.162-6.984v-1.679c3.451,0.025,6.475,0.036,9.062,0.036l5.05-0.018l3.018-0.018
				c-0.133,1.793-0.205,3.093-0.219,3.898l-2.58-0.091l-1.05-0.018h-1.403h-2.744l-3.735,0.018l-0.22,6.48l3.07,0.053
				c2.334,0,3.832-0.005,4.49-0.018l2.455-0.036c-0.084,1.396-0.138,2.67-0.162,3.826c-2.094-0.048-3.758-0.072-4.996-0.072
				c-1.563,0-3.255,0.024-5.066,0.072l-0.197,7.979l-0.02,1.625v0.92l-2.766-0.037C205.189,41.441,204.189,41.454,202.337,41.479z"
				/>
			<path fill="#FFFFFF" d="M239.201,37.381c-0.156,0.71-0.378,1.986-0.668,3.827c-1.301,0.276-2.395,0.463-3.284,0.56
				c-0.892,0.099-1.787,0.146-2.688,0.146c-1.576,0-2.984-0.157-4.229-0.471s-2.336-0.887-3.272-1.721
				c-0.938-0.838-1.633-1.861-2.074-3.076c-0.446-1.213-0.668-2.486-0.668-3.821c0-1.478,0.258-2.912,0.771-4.3
				c0.521-1.389,1.242-2.524,2.18-3.409c0.932-0.883,1.99-1.508,3.184-1.875c1.193-0.366,2.438-0.55,3.736-0.55
				c1.229,0,2.396,0.153,3.502,0.459c1.104,0.307,2.037,0.808,2.789,1.504c0.752,0.697,1.326,1.535,1.729,2.513
				c0.402,0.979,0.604,2.069,0.604,3.269c0,0.565-0.062,1.147-0.182,1.748L227.4,32.203c-0.024,0.445-0.037,0.8-0.037,1.065
				c0,0.806,0.139,1.544,0.416,2.218c0.272,0.675,0.68,1.246,1.207,1.715c0.531,0.47,1.162,0.814,1.896,1.038
				c0.733,0.223,1.457,0.334,2.166,0.334c0.83,0,1.729-0.091,2.698-0.271C236.714,38.121,237.866,37.814,239.201,37.381z
				 M227.543,30.09l8.445,0.019c0-0.576-0.021-1.001-0.055-1.277c-0.037-0.275-0.115-0.59-0.242-0.944
				c-0.127-0.353-0.299-0.665-0.519-0.935c-0.217-0.269-0.469-0.494-0.758-0.673c-0.289-0.18-0.623-0.318-1.002-0.414
				c-0.38-0.096-0.785-0.144-1.22-0.144c-0.508,0-0.993,0.078-1.473,0.233c-0.477,0.156-0.912,0.384-1.31,0.684
				c-0.396,0.299-0.72,0.635-0.966,1.006c-0.246,0.372-0.43,0.728-0.551,1.069C227.782,29.057,227.663,29.515,227.543,30.09z"/>
			<path fill="#FFFFFF" d="M243.221,41.479l0.521-8.569l0.146-4.982c0.021-1.021,0.033-2.051,0.033-3.086
				c0-0.18-0.013-0.751-0.033-1.714c1.115,0.025,1.94,0.037,2.473,0.037c0.615,0,1.427-0.012,2.438-0.037l-0.09,2.545
				c0.457-0.649,0.85-1.134,1.174-1.453c0.324-0.318,0.688-0.592,1.092-0.821c0.402-0.228,0.854-0.403,1.344-0.523
				c0.494-0.12,1-0.181,1.521-0.181c0.479,0,0.978,0.06,1.479,0.181c0,1.119,0.057,2.538,0.162,4.26
				c-0.709-0.192-1.354-0.289-1.933-0.289c-0.696,0-1.313,0.105-1.853,0.316c-0.533,0.21-1.019,0.529-1.441,0.956
				c-0.428,0.428-0.777,0.954-1.059,1.58c-0.229,0.505-0.396,1.161-0.506,1.967c-0.095,0.626-0.172,1.697-0.234,3.212
				c-0.064,1.52-0.102,3.009-0.102,4.479c0,0.563,0.021,1.272,0.059,2.129c-0.917-0.023-1.754-0.035-2.516-0.035
				C245.146,41.441,244.256,41.454,243.221,41.479z"/>
			<path fill="#FFFFFF" d="M257.29,41.479c0.185-1.806,0.313-3.313,0.385-4.527c0.122-1.928,0.229-4.146,0.32-6.66
				c0.093-2.514,0.155-4.903,0.192-7.165c1.172,0.024,2.052,0.037,2.638,0.037c0.538,0,1.411-0.013,2.618-0.037
				c-0.162,2.094-0.293,4.091-0.396,5.992c-0.098,1.901-0.17,4.079-0.217,6.53c-0.047,2.455-0.066,4.397-0.066,5.83
				c-1.099-0.021-1.979-0.037-2.642-0.037C259.501,41.441,258.555,41.454,257.29,41.479z M258.277,19.983
				c0.05-1.24,0.072-2.19,0.072-2.852v-0.578c1.096,0.024,1.983,0.037,2.672,0.037c0.938,0,1.812-0.012,2.617-0.037
				c-0.035,0.302-0.063,0.646-0.072,1.029l-0.09,2.4c-0.916-0.024-1.761-0.036-2.526-0.036
				C260.18,19.947,259.289,19.959,258.277,19.983z"/>
			<path fill="#FFFFFF" d="M268.238,27.148c0.169-0.866,0.271-1.474,0.316-1.823c0.038-0.35,0.113-0.878,0.226-1.588
				c1.635-0.385,3.079-0.655,4.329-0.812c1.252-0.156,2.463-0.235,3.63-0.235c1.321,0,2.538,0.153,3.646,0.46
				c1.106,0.307,1.975,0.797,2.6,1.471s0.938,1.643,0.938,2.906c0,0.685-0.096,2.433-0.286,5.243
				c-0.191,2.81-0.306,5.712-0.342,8.708c-0.915-0.024-1.758-0.037-2.527-0.037c-0.731,0-1.598,0.013-2.584,0.037
				c0.158-1.457,0.287-3.144,0.385-5.058l0.238-4.493c-0.459,0.301-0.809,0.511-1.051,0.632c-0.238,0.12-0.511,0.232-0.813,0.333
				c-0.303,0.103-0.832,0.26-1.592,0.47c-0.76,0.21-1.367,0.394-1.824,0.55c-0.457,0.153-0.867,0.333-1.235,0.53
				c-0.367,0.197-0.678,0.423-0.933,0.67c-0.252,0.244-0.438,0.505-0.549,0.773c-0.115,0.271-0.172,0.563-0.172,0.875
				c0,0.504,0.146,0.941,0.439,1.312c0.295,0.364,0.664,0.622,1.107,0.767c0.444,0.146,0.971,0.221,1.568,0.221
				c0.387,0,0.792-0.03,1.219-0.095c0.428-0.059,1.004-0.21,1.727-0.448c-0.252,0.687-0.549,1.709-0.887,3.065
				c-0.854,0.146-1.53,0.231-2.039,0.271c-0.506,0.037-0.977,0.057-1.404,0.057c-1.52,0-2.766-0.205-3.736-0.614
				c-0.977-0.407-1.691-1.06-2.154-1.948c-0.463-0.891-0.694-1.787-0.694-2.688c0-0.519,0.091-1.028,0.271-1.534
				c0.182-0.505,0.445-0.969,0.795-1.39c0.353-0.421,0.801-0.827,1.354-1.218c0.555-0.391,1.354-0.77,2.401-1.137
				c1.049-0.367,2.433-0.736,4.151-1.11c0.456-0.096,0.937-0.213,1.431-0.351c0.492-0.139,0.887-0.274,1.183-0.407
				c0.295-0.132,0.55-0.303,0.767-0.514c0.217-0.21,0.377-0.43,0.479-0.659c0.104-0.228,0.153-0.463,0.153-0.703
				c0-0.47-0.153-0.867-0.459-1.192c-0.311-0.325-0.705-0.551-1.191-0.677c-0.489-0.126-1.028-0.189-1.617-0.189
				C273.309,25.578,270.889,26.101,268.238,27.148z"/>
			<path fill="#FFFFFF" d="M287.523,41.479c0.181-2.033,0.396-5.688,0.658-10.961c0.256-5.276,0.416-9.833,0.475-13.672
				c1.252,0.025,2.144,0.036,2.674,0.036c0.71,0,1.578-0.011,2.604-0.036l-0.433,6.587l-0.628,14.691l-0.073,3.354
				c-0.987-0.021-1.823-0.035-2.511-0.035C290.061,41.441,289.141,41.454,287.523,41.479z"/>
		</g>
	</g>
	<g>
		<g>
			<path fill="#FFFFFF" d="M222.691,56.852c-0.043-0.727-0.099-1.353-0.159-1.879c1.106,0.398,2.132,0.603,3.073,0.603
				c0.469,0,0.894-0.074,1.271-0.228c0.38-0.146,0.685-0.363,0.899-0.642c0.224-0.279,0.332-0.608,0.332-0.985
				c0-0.318-0.094-0.601-0.274-0.842c-0.187-0.24-0.47-0.423-0.856-0.542c-0.396-0.12-0.896-0.181-1.517-0.181
				c-0.396,0-0.801,0.025-1.221,0.072c0.054-0.615,0.097-1.199,0.128-1.75c0.313,0.052,0.625,0.08,0.928,0.08
				c0.473,0,0.916-0.045,1.344-0.141c0.422-0.091,0.752-0.271,0.983-0.559c0.229-0.277,0.354-0.584,0.354-0.916
				c0-0.135-0.021-0.264-0.063-0.389s-0.1-0.24-0.169-0.344c-0.071-0.104-0.162-0.195-0.271-0.275s-0.229-0.146-0.363-0.193
				c-0.133-0.053-0.313-0.096-0.545-0.124c-0.229-0.032-0.475-0.05-0.731-0.05c-0.354,0-0.717,0.021-1.094,0.066
				c-0.375,0.045-0.854,0.131-1.435,0.26l0.147-0.664l0.19-1.047c0.612-0.086,1.129-0.145,1.553-0.176
				c0.421-0.033,0.877-0.049,1.363-0.049c0.563,0,1.104,0.046,1.631,0.137c0.521,0.09,0.975,0.248,1.348,0.475
				c0.374,0.225,0.646,0.516,0.828,0.869c0.179,0.359,0.269,0.75,0.269,1.181c0,0.274-0.038,0.551-0.118,0.817
				c-0.08,0.271-0.199,0.521-0.354,0.748c-0.157,0.229-0.333,0.42-0.527,0.568s-0.386,0.271-0.569,0.359
				c-0.188,0.092-0.459,0.197-0.814,0.32c0.384,0.059,0.678,0.123,0.879,0.191c0.203,0.07,0.403,0.184,0.602,0.328
				c0.195,0.146,0.367,0.313,0.506,0.514c0.14,0.192,0.242,0.419,0.312,0.672c0.07,0.254,0.104,0.52,0.104,0.795
				c0,0.502-0.12,0.974-0.354,1.418c-0.235,0.442-0.582,0.813-1.03,1.104c-0.451,0.293-0.966,0.499-1.541,0.619
				c-0.574,0.117-1.176,0.181-1.8,0.181c-0.459,0-0.932-0.026-1.423-0.089C224.01,57.12,223.406,57.011,222.691,56.852z"/>
			<path fill="#FFFFFF" d="M244.547,57.074c-0.441-0.012-0.785-0.016-1.031-0.016c-0.267,0-0.635,0.004-1.104,0.016l0.07-1.391
				c-0.232,0.303-0.438,0.534-0.604,0.699c-0.167,0.166-0.375,0.319-0.622,0.46c-0.249,0.146-0.517,0.246-0.804,0.315
				c-0.289,0.066-0.588,0.104-0.896,0.104c-0.514,0-0.99-0.095-1.438-0.279c-0.448-0.188-0.829-0.447-1.146-0.787
				c-0.313-0.34-0.549-0.738-0.695-1.205c-0.148-0.471-0.227-0.953-0.227-1.461c0-0.697,0.135-1.381,0.4-2.043s0.63-1.2,1.094-1.61
				c0.465-0.411,0.987-0.701,1.574-0.872c0.585-0.17,1.214-0.255,1.885-0.255c0.482,0,1.033,0.045,1.646,0.136
				c0.037-0.691,0.06-1.421,0.06-2.184V46.16c0.503,0.01,0.89,0.015,1.151,0.015c0.35,0,0.736-0.005,1.172-0.015
				c-0.117,1.354-0.229,3.195-0.333,5.527C244.6,54.021,244.547,55.816,244.547,57.074z M242.57,50.406
				c-0.397-0.107-0.782-0.16-1.151-0.16c-0.421,0-0.821,0.059-1.206,0.176c-0.384,0.117-0.725,0.316-1.02,0.6
				c-0.297,0.283-0.523,0.646-0.688,1.088c-0.156,0.442-0.236,0.869-0.236,1.279c0,0.409,0.069,0.786,0.219,1.127
				c0.146,0.344,0.375,0.61,0.684,0.812c0.311,0.194,0.659,0.296,1.049,0.296c0.293,0,0.562-0.055,0.799-0.155
				c0.241-0.104,0.459-0.265,0.656-0.479c0.196-0.216,0.363-0.494,0.5-0.834c0.137-0.345,0.231-0.796,0.291-1.36
				C242.505,52.372,242.54,51.578,242.57,50.406z"/>
			<path fill="#FFFFFF" d="M253.635,55.26c-0.068,0.314-0.168,0.881-0.297,1.694c-0.574,0.122-1.061,0.206-1.454,0.248
				c-0.396,0.043-0.792,0.063-1.19,0.063c-0.696,0-1.32-0.068-1.877-0.207c-0.551-0.144-1.031-0.396-1.447-0.767
				s-0.727-0.824-0.924-1.358c-0.192-0.537-0.295-1.104-0.295-1.693c0-0.654,0.115-1.29,0.348-1.905
				c0.229-0.616,0.551-1.118,0.964-1.51s0.886-0.668,1.411-0.831c0.523-0.162,1.079-0.244,1.65-0.244
				c0.545,0,1.063,0.068,1.556,0.204c0.487,0.135,0.899,0.358,1.231,0.667s0.59,0.68,0.771,1.113
				c0.179,0.435,0.271,0.916,0.271,1.449c0,0.25-0.027,0.508-0.08,0.771l-5.86,0.008c-0.013,0.197-0.017,0.354-0.017,0.476
				c0,0.354,0.063,0.686,0.185,0.98s0.302,0.555,0.536,0.762c0.23,0.209,0.513,0.359,0.839,0.459
				c0.325,0.101,0.646,0.146,0.959,0.146c0.368,0,0.767-0.039,1.196-0.119C252.532,55.588,253.042,55.452,253.635,55.26z
				 M248.469,52.029l3.742,0.009c0-0.256-0.008-0.444-0.023-0.565c-0.017-0.123-0.051-0.262-0.104-0.418
				c-0.061-0.158-0.133-0.296-0.229-0.414c-0.1-0.121-0.209-0.221-0.338-0.301c-0.127-0.078-0.271-0.14-0.441-0.183
				c-0.168-0.042-0.35-0.063-0.539-0.063c-0.227,0-0.441,0.034-0.652,0.104c-0.21,0.069-0.4,0.17-0.576,0.303
				c-0.179,0.133-0.317,0.281-0.43,0.444c-0.107,0.166-0.189,0.324-0.246,0.476C248.577,51.572,248.521,51.773,248.469,52.029z"/>
			<path fill="#FFFFFF" d="M258.346,56.906c-0.031-0.61-0.08-1.245-0.145-1.902c0.582,0.188,1.038,0.316,1.372,0.387
				c0.333,0.067,0.653,0.104,0.963,0.104c0.251,0,0.494-0.034,0.728-0.104c0.209-0.062,0.396-0.139,0.553-0.23
				c0.117-0.08,0.219-0.171,0.298-0.266c0.114-0.142,0.215-0.301,0.286-0.48c0.074-0.189,0.136-0.453,0.179-0.783
				c0.058-0.438,0.104-1.163,0.147-2.177c0.03-0.794,0.063-1.688,0.086-2.674c0.021-0.826,0.031-1.698,0.031-2.616
				c0.635,0.011,1.045,0.018,1.228,0.018c0.215,0,0.643-0.007,1.278-0.018l-0.215,3.436c-0.043,0.825-0.089,1.959-0.136,3.398
				c-0.033,0.984-0.085,1.662-0.16,2.023c-0.054,0.275-0.136,0.521-0.247,0.733c-0.103,0.19-0.228,0.362-0.377,0.515
				c-0.176,0.17-0.39,0.32-0.639,0.457c-0.326,0.174-0.674,0.308-1.041,0.393c-0.41,0.102-0.855,0.15-1.335,0.15
				C260.384,57.268,259.434,57.146,258.346,56.906z"/>
			<path fill="#FFFFFF" d="M275.086,57.074c-0.468-0.012-0.829-0.016-1.079-0.016c-0.315,0-0.672,0.004-1.071,0.016l0.018-1.327
				c-0.148,0.223-0.281,0.403-0.396,0.54c-0.111,0.136-0.258,0.27-0.438,0.4c-0.182,0.129-0.378,0.229-0.592,0.312
				c-0.213,0.076-0.457,0.142-0.73,0.19c-0.273,0.052-0.564,0.076-0.875,0.076c-0.598,0-1.115-0.086-1.561-0.263
				c-0.44-0.173-0.793-0.438-1.051-0.789c-0.263-0.351-0.391-0.854-0.391-1.51V54.54l0.128-2.063l0.122-2.718
				c0.006-0.219,0.012-0.491,0.012-0.815c0.506,0.014,0.898,0.019,1.188,0.019c0.304,0,0.67-0.005,1.103-0.019l-0.267,3.646
				c-0.02,0.284-0.027,0.521-0.037,0.717c-0.008,0.193-0.014,0.336-0.014,0.42c0,0.385,0.06,0.703,0.174,0.957
				c0.111,0.252,0.313,0.444,0.601,0.577c0.283,0.136,0.591,0.201,0.913,0.201c0.311,0,0.604-0.062,0.881-0.177
				c0.25-0.105,0.465-0.255,0.646-0.448c0.177-0.19,0.325-0.45,0.448-0.774c0.093-0.231,0.16-0.562,0.209-0.978
				c0.037-0.292,0.069-0.796,0.104-1.511c0.045-0.863,0.075-1.739,0.094-2.631c0.527,0.012,0.932,0.018,1.209,0.018
				c0.313,0,0.67-0.005,1.063-0.018c-0.063,0.764-0.132,1.716-0.198,2.856c-0.066,1.146-0.115,2.089-0.146,2.83
				C275.123,55.375,275.104,56.189,275.086,57.074z"/>
			<path fill="#FFFFFF" d="M276.93,57.074c0.079-0.9,0.176-2.52,0.289-4.857c0.114-2.337,0.188-4.355,0.213-6.057
				c0.555,0.011,0.948,0.016,1.188,0.016c0.313,0,0.695-0.005,1.148-0.016l-0.188,2.918l-0.279,6.51l-0.031,1.486
				c-0.438-0.012-0.81-0.016-1.109-0.016C278.053,57.059,277.645,57.063,276.93,57.074z"/>
			<path fill="#FFFFFF" d="M281.115,57.074c0.08-0.801,0.139-1.469,0.171-2.008c0.054-0.854,0.103-1.836,0.144-2.949
				c0.039-1.114,0.067-2.172,0.084-3.176c0.521,0.012,0.908,0.017,1.17,0.017c0.237,0,0.623-0.005,1.159-0.017
				c-0.073,0.929-0.131,1.813-0.174,2.651c-0.045,0.847-0.076,1.812-0.097,2.896c-0.021,1.089-0.031,1.946-0.031,2.583
				c-0.486-0.014-0.875-0.018-1.168-0.018C282.096,57.059,281.675,57.063,281.115,57.074z M281.555,47.551
				c0.021-0.549,0.031-0.97,0.031-1.264v-0.255c0.484,0.01,0.88,0.016,1.184,0.016c0.416,0,0.806-0.005,1.16-0.016
				c-0.017,0.134-0.027,0.284-0.033,0.456l-0.039,1.063c-0.402-0.011-0.775-0.016-1.116-0.016
				C282.396,47.535,282.001,47.541,281.555,47.551z"/>
			<path fill="#FFFFFF" d="M289.709,48.75c0.611,0,1.199,0.092,1.762,0.275c0.563,0.185,1.041,0.457,1.432,0.813
				c0.396,0.36,0.688,0.803,0.888,1.32c0.194,0.521,0.296,1.063,0.296,1.642c0,0.608-0.104,1.195-0.313,1.763
				c-0.209,0.563-0.51,1.056-0.901,1.469c-0.396,0.412-0.89,0.722-1.479,0.927c-0.588,0.205-1.216,0.308-1.883,0.308
				c-0.617,0-1.205-0.091-1.763-0.271c-0.558-0.188-1.033-0.461-1.429-0.828c-0.396-0.368-0.693-0.813-0.899-1.347
				c-0.204-0.524-0.308-1.076-0.308-1.652c0-0.586,0.094-1.146,0.279-1.682c0.188-0.531,0.479-1.008,0.877-1.424
				c0.396-0.416,0.901-0.735,1.521-0.968C288.406,48.866,289.047,48.75,289.709,48.75z M289.708,50.398
				c-0.463,0-0.875,0.109-1.239,0.34c-0.363,0.226-0.635,0.563-0.813,1.012c-0.178,0.445-0.268,0.936-0.268,1.462
				c0,0.464,0.071,0.878,0.221,1.239c0.146,0.363,0.385,0.656,0.717,0.879c0.331,0.225,0.727,0.337,1.183,0.337
				c0.47,0,0.88-0.116,1.232-0.349c0.353-0.231,0.616-0.572,0.797-1.022c0.177-0.45,0.267-0.948,0.267-1.491
				c0-0.443-0.07-0.845-0.207-1.207c-0.139-0.363-0.371-0.654-0.697-0.871C290.572,50.508,290.175,50.398,289.708,50.398z"/>
		</g>
	</g>
</g>
</svg>
