<?xml version="1.0" encoding="utf-8"?>
<!-- Generator: Adobe Illustrator 23.0.1, SVG Export Plug-In . SVG Version: 6.00 Build 0)  -->
<svg version="1.1" id="Capa_1" xmlns="http://www.w3.org/2000/svg" xmlns:xlink="http://www.w3.org/1999/xlink" x="0px" y="0px"
	 viewBox="0 0 192 182" style="enable-background:new 0 0 192 182;" xml:space="preserve">
<style type="text/css">
	.st0{fill:#1A73E8;}
</style>
<g>
	<path class="st0" d="M24.4,115.5c-1.4-3.9-3.1-7.6-5.1-11.1c-4.8-8.7-11-16.3-18.6-22.7l-0.6-0.5L9.9,51l0.7-0.1
		c14-1,27.6-5.6,39.3-13.5l0.9-0.6l14.8,20.6L64.8,58c-4.1,3.4-7.7,7.5-10.5,12c2.4-1.3,5.1-2,7.8-2c9,0,16.5,7.4,16.6,16.4v0.2
		c0,9.2-7.5,16.6-16.6,16.6c-6.2,0-11.9-3.4-14.7-8.9c-0.1-0.2-0.2-0.4-0.3-0.6c0,0.3-0.1,0.6-0.1,1V93c-0.1,0.9-0.1,1.7-0.1,2.6
		c0,4,0.5,8.1,1.5,12l0.3,1L25,116.5L24.4,115.5z"/>
	<path class="st0" d="M26.8,163.5l0.2-0.7c1.6-6.3,2.4-12.8,2.4-19.5c0-7.4-1-14.8-3-21.8l-0.3-1l23.9-7.9l0.4,1
		c2,4.9,4.6,9.4,8,13.4c-0.2-0.9-0.2-1.9-0.2-2.8c0-9.2,7.5-16.6,16.6-16.6s16.6,7.5,16.6,16.6c0,8.5-6.3,15.4-14.5,16.5
		c5,2.1,10.2,3.3,15.7,3.6l1.1,0.1v25l-1.1,0.1c-14,0.5-27.7,4.7-39.6,12.1l-0.6,0.4L26.8,163.5z"/>
	<path class="st0" d="M138.3,181.5c-11.9-7.4-25.5-11.6-39.4-12.1l-1.1-0.1v-25l1.1-0.1c5.5-0.3,10.7-1.6,15.7-3.6
		c-8.2-1-14.6-8.1-14.6-16.5c0-9.2,7.5-16.6,16.6-16.6s16.6,7.5,16.6,16.6c0,1-0.1,2.1-0.3,3.1c3.4-4,6.2-8.6,8.2-13.5l0.4-1
		l23.7,7.8l-0.3,1c-0.8,2.9-1.5,6-2,9c-0.6,4.1-1,8.3-1,12.6c0,6.6,0.8,13.1,2.4,19.6l0.2,0.7L139,182L138.3,181.5z"/>
	<path class="st0" d="M142.8,108.7l0.3-1c1-4,1.5-8,1.5-12.1c0-1.3-0.1-2.5-0.1-3.8c-2.7,5.6-8.4,9.5-15.1,9.5
		c-9.2,0-16.6-7.5-16.6-16.6c0-1.4,0.2-2.6,0.5-3.8c1.7-7.6,8.4-12.9,16.2-12.9c2.8,0,5.6,0.7,8,2c-2.8-4.5-6.3-8.6-10.5-12
		l-0.8-0.7L141,36.7l0.9,0.6c11.6,7.8,25.1,12.6,39.1,13.5l0.7,0.1l9.7,30.1l-0.6,0.5c-4,3.3-7.6,7.1-10.9,11.1
		c-5.6,7-10,14.7-13,22.9l-0.4,1L142.8,108.7z"/>
	<path class="st0" d="M95.8,76.7c-9.2,0-16.6-7.5-16.6-16.6c0-4.5,1.8-8.8,4.8-11.8c-5,1.2-9.7,3.3-14.2,6.1L68.9,55L54.1,34.4
		l0.9-0.7c10.8-8.6,19.3-20,24.5-32.8l0.3-0.7h32.1l0.3,0.7c5.2,12.8,13.7,24.1,24.6,32.8l0.9,0.7l-15,20.6l-0.9-0.6
		c-4.4-2.8-9.2-4.8-14.2-6c3.1,3.1,4.8,7.3,4.8,11.8C112.4,69.3,104.9,76.7,95.8,76.7z"/>
</g>
</svg>
