<?xml version="1.0" encoding="utf-8"?>
<!-- Generator: Adobe Illustrator 23.0.1, SVG Export Plug-In . SVG Version: 6.00 Build 0)  -->
<svg version="1.1" id="Capa_1" xmlns="http://www.w3.org/2000/svg" xmlns:xlink="http://www.w3.org/1999/xlink" x="0px" y="0px"
	 viewBox="0 0 192 182" style="enable-background:new 0 0 192 182;" xml:space="preserve">
<style type="text/css">
	.st0{fill:url(#SVGID_1_);}
</style>
<linearGradient id="SVGID_1_" gradientUnits="userSpaceOnUse" x1="-78.6763" y1="-34.9028" x2="281.3237" y2="243.0971" gradientTransform="matrix(1 0 0 -1 0 184)">
	<stop  offset="0" style="stop-color:#4AC7B3"/>
	<stop  offset="1" style="stop-color:#0091FC"/>
</linearGradient>
<path class="st0" d="M118.3,7.3c-3.2,1-17.4,2.1-18.9,2.1c-14.5,0-30.6-2.2-40.8-4.2C44.7,2.4,30.7,6.4,20.1,16
	c-9.9,9-14.3,21.7-14,34.1c0.8,31.2,12,62.8,21,98.6c2.6,10.5,6.6,20,13.9,25.1c5.8,4.1,13.3,5.3,22.6,1.9
	c11.5-4.2,26.3-14.4,36-21.8c11.4,16.2,22.1,24,32.5,23.7c16.7-0.4,22.7-16.7,25.7-28.9c6.8-27.1,18.5-71.6,21-98.6
	C181.5,20.8,151.1-3.1,118.3,7.3z M86.3,149.1c-3.2,2.3-12.5,9.2-20.4,13.3c-10.6,5.5-17.9,3.3-21.1-1c-2.2-2.9-4.5-7.7-6.4-15.6
	c-5.1-20.4-14.5-50.9-18.6-75.4c-2.4-14.1-2-19.1-2.1-21.3c-0.2-8.9,2.9-18,10.2-24.6c7.8-7.1,18.2-10,28.4-8
	c9.2,1.8,23,3.8,36.4,4.3C82.5,28,76.8,32.6,65.3,29.6c-3.1-0.8-6.3,1.1-7.1,4.2s1.1,6.3,4.2,7.1c28,7.2,31.4-16.1,67.6-24.2
	c16.6-1.7,30.8,7.1,35.3,19.5C177.7,70.4,118.3,126.3,86.3,149.1z M146.4,145.8c-7.1,28.5-21,24.7-37.8,0.8
	c18.7-15.3,38.4-35,52.1-55.1C156.1,110.8,150.2,130.7,146.4,145.8z"/>
</svg>
