<?xml version="1.0" encoding="utf-8"?>
<!-- Generator: Adobe Illustrator 23.0.1, SVG Export Plug-In . SVG Version: 6.00 Build 0)  -->
<svg version="1.1" id="OBJECTS" xmlns="http://www.w3.org/2000/svg" xmlns:xlink="http://www.w3.org/1999/xlink" x="0px" y="0px"
	 viewBox="0 0 350 350" style="enable-background:new 0 0 350 350;" xml:space="preserve">
<style type="text/css">
	.st0{fill:#4AC7B3;}
	.st1{fill:#2DABEB;}
	.st2{fill:#909091;}
	.st3{fill:url(#SVGID_1_);}
</style>
<g>
	<g>
		<path class="st0" d="M29.3,230.6H34c1.3,0,2.4,0.5,3.3,1.4c0.9,1,1.4,2,1.4,3.2v26.7c0,6.5-1.9,10.8-5.6,13.1
			c-3.7,2.3-7.8,3.4-12.2,3.4c-2.4,0-4.7-0.4-7-1.2c-2.3-0.8-4.1-2-5.5-3.8c-2.6-3.4-4-8-4-13.8c0-5.7,1.3-10.3,4-13.8
			c2.7-3.6,6.2-5.3,10.5-5.3c2.3,0,4.3,0.5,6,1.4c1.8,1.1,3.3,2.5,4.4,4.2C29.3,246.1,29.3,230.6,29.3,230.6z M13.8,259.3
			c0,3.6,0.7,6.4,2,8.3c1.4,1.9,3.3,2.9,5.9,2.9c2.5,0,4.4-1,5.7-2.9c1.3-1.9,1.9-4.7,1.9-8.3c0-3.3-0.7-5.9-2-7.8
			c-1.5-1.8-3.4-2.7-5.9-2.7c-2.4,0-4.2,1-5.6,2.9C14.4,253.4,13.8,256,13.8,259.3z"/>
		<path class="st0" d="M67,266.5h6.8c-1,3.8-2.9,6.7-5.7,8.7c-2.8,2.1-6.4,3.1-10.7,3.1c-5.2,0-9.2-1.7-12.2-5.1
			c-2.9-3.3-4.4-8-4.4-14.1c0-5.8,1.4-10.4,4.2-13.7c2.9-3.4,7-5.1,12.2-5.1c5.5,0,9.7,1.6,12.7,4.9c2.9,3.4,4.4,8.1,4.4,14.1
			c0,0.4,0,0.7,0,1s0,0.5,0,0.5c0,0.5,0,0.8-0.1,1H50.6c0.1,2.8,0.8,4.9,2.1,6.3c1.2,1.5,3,2.2,5.3,2.2c1.5,0,2.9-0.3,4-1
			c0.3-0.1,0.5-0.3,0.8-0.5c0.2-0.2,0.5-0.5,0.8-0.8c0.1-0.3,0.4-0.6,1-1.1C65,266.8,65.9,266.5,67,266.5z M50.6,255.9h13.9
			c-0.2-2.5-0.8-4.3-1.9-5.5c-1.2-1.3-2.9-1.9-5.1-1.9c-2,0-3.6,0.6-4.9,1.9C51.3,251.7,50.7,253.5,50.6,255.9z"/>
		<path class="st0" d="M109,277.7h-4.8c-1.4,0-2.5-0.4-3.3-1.3c-0.9-0.9-1.3-2-1.3-3.3v-18.6c0-2.2-0.7-3.8-2-4.8s-2.8-1.5-4.4-1.5
			s-3.1,0.5-4.4,1.5s-1.9,2.6-1.9,4.8v23.2h-9.6v-21.3c0-6.2,1.6-10.3,4.9-12.4c3.2-2.1,6.8-3.2,10.7-3.4c4,0,7.7,1,11.1,3.1
			s5.1,6.3,5.1,12.7L109,277.7L109,277.7z"/>
		<path class="st0" d="M128,277.7c-3,0.2-6.3,0.1-9.8-0.1c-3.5-0.3-5.3-2.5-5.3-6.7v-40.2h4.9c1.2,0,2.2,0.5,3.1,1.4s1.4,2,1.4,3.3
			v6.2h5.6v1.9c0,1.4-0.5,2.5-1.4,3.3c-0.9,0.9-2,1.3-3.3,1.3h-1v20.2c0,1.6,0.9,2.3,2.7,2.3h2.9v7.1H128z"/>
		<path class="st0" d="M153.5,276.2c-1.9,1-3.9,1.6-6.1,1.8c-2.1,0.2-4,0.3-5.7,0.3c-3.3,0-6.2-0.9-8.6-2.7
			c-2.5-1.8-3.7-4.7-3.7-8.8c0-3.8,1.1-6.6,3.3-8.2s5.1-2.7,8.5-3.3c0.5,0,1-0.1,1.6-0.2c0.6-0.1,1.4-0.3,2.2-0.3c4-0.5,6-1.7,6-3.6
			c0-1.4-0.7-2.3-2.1-2.7c-1.4-0.4-2.7-0.6-3.9-0.6c-1.3,0-2.4,0.2-3.4,0.5c-1,0.4-1.7,1-2.2,2.1h-9.2c0.4-2.8,1.6-5.1,3.8-7
			c2.5-2.1,6-3.1,10.5-3.1c5.1,0,8.9,0.9,11.5,2.6c2.6,1.8,4,4.4,4,7.7v12.4c0,3.6-0.7,6.5-2,8.5
			C156.9,273.8,155.3,275.3,153.5,276.2z M151.3,259.4c-1.3,0.6-3.1,1.2-5.3,1.8l-3.1,0.7c-1.6,0.5-2.8,1-3.6,1.8c-0.6,1-1,2-1,3
			c0,1.4,0.4,2.5,1.2,3.3c0.8,0.7,2,1.1,3.6,1.1c2.5,0,4.6-0.7,6-2.2c1.5-1.5,2.2-3.5,2.2-6L151.3,259.4L151.3,259.4z"/>
		<path class="st0" d="M163.3,230.7h4.9c1.3,0,2.4,0.4,3.3,1.3c0.9,0.9,1.4,1.9,1.4,3.2v42.5h-9.6L163.3,230.7L163.3,230.7z"/>
		<path class="st1" d="M199.8,251.6c-1.4-1.9-3.2-2.9-5.6-2.9c-2.6,0-4.5,0.9-5.9,2.7s-2.1,4.3-2.1,7.5v18.7h-9.3v-47h4.6
			c1.3,0,2.4,0.5,3.3,1.4c0.9,0.9,1.4,2,1.4,3.3v10.8c1.6-2.7,4-4.5,7-5.2s5.9-0.5,8.6,0.5c2.5,1.1,4.7,2.8,6.4,5.2s2.6,5.7,2.6,9.8
			v21.2h-9.2v-18.9c0-1.4-0.1-2.6-0.3-3.8C201.1,254,200.6,252.8,199.8,251.6z"/>
		<path class="st1" d="M239.2,266.5h6.8c-1,3.8-2.9,6.7-5.7,8.7c-2.8,2.1-6.4,3.1-10.7,3.1c-5.2,0-9.3-1.7-12.2-5.1
			c-2.9-3.3-4.4-8-4.4-14.1c0-5.8,1.4-10.4,4.2-13.7c2.9-3.4,7-5.1,12.2-5.1c5.5,0,9.7,1.6,12.7,4.9c2.9,3.4,4.4,8.1,4.4,14.1
			c0,0.4,0,0.7,0,1s0,0.5,0,0.5c0,0.5,0,0.8-0.1,1h-23.6c0.1,2.8,0.8,4.9,2.1,6.3c1.2,1.5,3,2.2,5.3,2.2c1.5,0,2.9-0.3,4-1
			c0.3-0.1,0.5-0.3,0.8-0.5c0.2-0.2,0.5-0.5,0.8-0.8c0.1-0.3,0.4-0.6,1-1.1C237.2,266.8,238.1,266.5,239.2,266.5z M222.8,255.9h13.9
			c-0.2-2.5-0.8-4.3-1.9-5.5c-1.2-1.3-2.9-1.9-5.1-1.9c-2,0-3.6,0.6-4.9,1.9C223.5,251.7,222.9,253.5,222.8,255.9z"/>
		<path class="st1" d="M272.7,276.2c-1.9,1-3.9,1.6-6.1,1.8c-2.1,0.2-4,0.3-5.7,0.3c-3.3,0-6.2-0.9-8.6-2.7
			c-2.5-1.8-3.7-4.7-3.7-8.8c0-3.8,1.1-6.6,3.3-8.2s5.1-2.7,8.5-3.3c0.5,0,1-0.1,1.6-0.2c0.6-0.1,1.4-0.3,2.2-0.3c4-0.5,6-1.7,6-3.6
			c0-1.4-0.7-2.3-2.1-2.7s-2.7-0.6-3.9-0.6c-1.3,0-2.4,0.2-3.4,0.5c-1,0.4-1.7,1-2.2,2.1h-9.2c0.4-2.8,1.6-5.1,3.8-7
			c2.5-2.1,6-3.1,10.5-3.1c5.1,0,8.9,0.9,11.5,2.6c2.6,1.8,4,4.4,4,7.7v12.4c0,3.6-0.7,6.5-2,8.5
			C276.1,273.8,274.5,275.3,272.7,276.2z M270.5,259.4c-1.3,0.6-3.1,1.2-5.3,1.8l-3.1,0.7c-1.6,0.5-2.8,1-3.6,1.8c-0.6,1-1,2-1,3
			c0,1.4,0.4,2.5,1.2,3.3c0.8,0.7,2,1.1,3.6,1.1c2.6,0,4.6-0.7,6-2.2c1.5-1.5,2.2-3.5,2.2-6L270.5,259.4L270.5,259.4z"/>
		<path class="st1" d="M282.6,230.7h4.9c1.3,0,2.4,0.4,3.3,1.3c0.9,0.9,1.4,1.9,1.4,3.2v42.5h-9.6L282.6,230.7L282.6,230.7z"/>
		<path class="st1" d="M311.3,277.7c-3,0.2-6.3,0.1-9.8-0.1c-3.5-0.3-5.3-2.5-5.3-6.7v-40.2h4.9c1.2,0,2.2,0.5,3.1,1.4
			s1.4,2,1.4,3.3v6.2h5.6v1.9c0,1.4-0.5,2.5-1.4,3.3c-0.9,0.9-2,1.3-3.3,1.3h-1v20.2c0,1.6,0.9,2.3,2.7,2.3h2.9v7.1H311.3z"/>
		<path class="st1" d="M336.3,251.6c-1.4-1.9-3.2-2.9-5.6-2.9c-2.6,0-4.5,0.9-5.9,2.7s-2.1,4.3-2.1,7.5v18.7h-9.3v-47h4.6
			c1.3,0,2.4,0.5,3.3,1.4s1.4,2,1.4,3.3v10.8c1.6-2.7,4-4.5,7-5.2s5.9-0.5,8.6,0.5c2.5,1.1,4.7,2.8,6.4,5.2c1.7,2.4,2.6,5.7,2.6,9.8
			v21.2h-9.2v-18.9c0-1.4-0.1-2.6-0.3-3.8C337.7,254,337.2,252.8,336.3,251.6z"/>
	</g>
</g>
<g>
	<path class="st2" d="M84.5,299.5V316h-2.3v-16.6h-3.1v-1.9h3.1v-1.7c0-0.8,0.1-1.5,0.2-2.2s0.3-1.2,0.7-1.7
		c0.3-0.5,0.8-0.8,1.4-1.1c0.6-0.3,1.3-0.4,2.2-0.4c0.3,0,0.6,0,0.9,0s0.6,0.1,1,0.1v1.9c-0.3,0-0.6-0.1-0.9-0.1s-0.5-0.1-0.8-0.1
		c-0.6,0-1.1,0.1-1.4,0.3c-0.3,0.2-0.6,0.4-0.7,0.8c-0.2,0.3-0.2,0.7-0.3,1.1c0,0.4,0,0.9,0,1.4v1.6h3.6v1.9h-3.6V299.5z"/>
	<path class="st2" d="M92.4,297.6v4.3h0.1c0.6-1.5,1.5-2.7,2.7-3.5s2.6-1.2,4.3-1.1v2.3c-1,0-2,0.1-2.8,0.4s-1.6,0.8-2.2,1.4
		s-1.1,1.3-1.4,2.1c-0.3,0.8-0.5,1.7-0.5,2.7v9.8h-2.3v-18.5h2.1V297.6z"/>
	<path class="st2" d="M103.9,290.5v3.6h-2.3v-3.6H103.9z M103.9,297.6V316h-2.3v-18.5h2.3V297.6z"/>
	<path class="st2" d="M109.9,309.9c0.2,0.9,0.6,1.7,1.1,2.3c0.5,0.7,1.1,1.3,1.9,1.7c0.8,0.5,1.7,0.7,2.8,0.7c1.6,0,2.9-0.4,3.9-1.3
		c0.9-0.9,1.6-2,1.9-3.4h2.3c-0.5,2.1-1.4,3.7-2.6,4.9c-1.3,1.1-3.1,1.7-5.4,1.7c-1.5,0-2.7-0.3-3.8-0.8c-1.1-0.5-1.9-1.2-2.6-2.1
		s-1.2-1.9-1.5-3.1s-0.5-2.4-0.5-3.7c0-1.2,0.2-2.4,0.5-3.6s0.8-2.2,1.5-3.1s1.5-1.7,2.6-2.2c1.1-0.6,2.3-0.8,3.8-0.8
		s2.7,0.3,3.8,0.9c1,0.6,1.9,1.4,2.6,2.3c0.7,1,1.1,2.1,1.4,3.3c0.3,1.3,0.4,2.5,0.4,3.8h-14.2C109.6,308.2,109.7,309.1,109.9,309.9
		z M121.1,303c-0.3-0.8-0.7-1.5-1.2-2.1s-1.1-1.1-1.8-1.5c-0.7-0.4-1.5-0.6-2.4-0.6s-1.8,0.2-2.5,0.6s-1.3,0.9-1.8,1.5
		s-0.9,1.3-1.2,2.1c-0.3,0.8-0.5,1.6-0.6,2.5h11.9C121.5,304.7,121.3,303.8,121.1,303z"/>
	<path class="st2" d="M129,297.6v3.2h0.1c0.4-1.1,1.2-2,2.3-2.7s2.3-1,3.6-1s2.4,0.2,3.2,0.5c0.9,0.3,1.6,0.8,2.1,1.4
		s0.9,1.4,1.1,2.2c0.2,0.9,0.3,1.9,0.3,3V316h-2.3v-11.5c0-0.8-0.1-1.5-0.2-2.2c-0.1-0.7-0.4-1.3-0.8-1.8c-0.4-0.5-0.8-0.9-1.4-1.2
		c-0.6-0.3-1.4-0.4-2.3-0.4c-0.9,0-1.7,0.2-2.4,0.5s-1.3,0.8-1.8,1.3c-0.5,0.6-0.9,1.2-1.1,2c-0.3,0.8-0.4,1.6-0.4,2.5V316h-2.3
		v-18.5h2.3V297.6z"/>
	<path class="st2" d="M160.2,316v-3.5h-0.1c-0.2,0.6-0.6,1.1-1.1,1.6s-1,0.9-1.6,1.3c-0.6,0.3-1.2,0.6-1.9,0.8
		c-0.7,0.2-1.4,0.3-2,0.3c-1.4,0-2.6-0.3-3.7-0.8s-1.9-1.2-2.6-2.1c-0.7-0.9-1.2-1.9-1.5-3.1s-0.5-2.4-0.5-3.7
		c0-1.3,0.2-2.6,0.5-3.7c0.3-1.2,0.8-2.2,1.5-3.1s1.6-1.6,2.6-2.1s2.3-0.8,3.7-0.8c0.7,0,1.4,0.1,2,0.3c0.7,0.2,1.3,0.4,1.8,0.8
		c0.6,0.3,1.1,0.8,1.5,1.3s0.8,1.1,1,1.8h0.1v-10.6h2.3V316H160.2z M147.8,309.6c0.2,0.9,0.6,1.8,1.1,2.5s1.1,1.3,1.9,1.8
		c0.8,0.5,1.7,0.7,2.8,0.7c1.2,0,2.2-0.2,3-0.7s1.5-1.1,2-1.8c0.5-0.7,0.9-1.6,1.1-2.5c0.2-0.9,0.3-1.9,0.3-2.8s-0.1-1.9-0.3-2.8
		s-0.6-1.8-1.1-2.5s-1.2-1.3-2-1.8s-1.8-0.7-3-0.7c-1.1,0-2,0.2-2.8,0.7s-1.4,1.1-1.9,1.8c-0.5,0.7-0.8,1.6-1.1,2.5
		c-0.2,0.9-0.3,1.9-0.3,2.8S147.6,308.7,147.8,309.6z"/>
	<path class="st2" d="M168.8,290.5V316h-2.3v-25.5H168.8z"/>
	<path class="st2" d="M173.5,297.6l6.1,15.7l5.7-15.7h2.3l-8,21.3c-0.3,0.8-0.6,1.4-0.9,1.9c-0.3,0.5-0.6,0.9-0.9,1.2
		c-0.3,0.3-0.8,0.5-1.2,0.6c-0.5,0.1-1.1,0.2-1.8,0.2c-0.5,0-0.8,0-1.1-0.1c-0.3,0-0.5-0.1-0.7-0.1v-1.9c0.3,0,0.5,0.1,0.8,0.1
		s0.5,0.1,0.8,0.1c0.5,0,0.9-0.1,1.2-0.2s0.6-0.3,0.8-0.6c0.2-0.3,0.4-0.6,0.6-0.9c0.2-0.4,0.3-0.8,0.5-1.2l0.8-2.1l-7.4-18.4h2.4
		V297.6z"/>
	<path class="st2" d="M211,300.1c-0.8-0.8-2-1.2-3.5-1.2c-1.1,0-2,0.2-2.8,0.7s-1.5,1-2,1.8c-0.5,0.7-0.9,1.6-1.2,2.5
		s-0.4,1.9-0.4,2.9s0.1,1.9,0.4,2.9c0.3,0.9,0.7,1.8,1.2,2.5s1.2,1.3,2,1.8s1.8,0.7,2.8,0.7c0.7,0,1.3-0.1,2-0.4
		c0.6-0.3,1.2-0.6,1.6-1.1c0.5-0.5,0.9-1,1.2-1.7c0.3-0.6,0.5-1.3,0.6-2.1h2.3c-0.3,2.2-1.1,4-2.5,5.2c-1.3,1.3-3.1,1.9-5.2,1.9
		c-1.4,0-2.7-0.3-3.7-0.8c-1.1-0.5-2-1.2-2.7-2.1s-1.3-1.9-1.7-3.1s-0.6-2.4-0.6-3.8c0-1.3,0.2-2.6,0.6-3.8c0.4-1.2,0.9-2.2,1.7-3.1
		c0.7-0.9,1.7-1.6,2.7-2.1c1.1-0.5,2.3-0.8,3.7-0.8c2,0,3.7,0.5,5,1.6c1.4,1,2.2,2.6,2.5,4.8h-2.3C212.4,302,211.8,300.9,211,300.1z
		"/>
	<path class="st2" d="M220.5,290.5V316h-2.3v-25.5H220.5z"/>
	<path class="st2" d="M227.2,290.5v3.6h-2.3v-3.6H227.2z M227.2,297.6V316h-2.3v-18.5h2.3V297.6z"/>
	<path class="st2" d="M233.7,297.6v3.2h0.1c0.4-1.1,1.2-2,2.3-2.7s2.3-1,3.6-1s2.4,0.2,3.2,0.5c0.9,0.3,1.6,0.8,2.1,1.4
		s0.9,1.4,1.1,2.2c0.2,0.9,0.3,1.9,0.3,3V316h-2.3v-11.5c0-0.8-0.1-1.5-0.2-2.2c-0.1-0.7-0.4-1.3-0.8-1.8c-0.4-0.5-0.8-0.9-1.4-1.2
		c-0.6-0.3-1.4-0.4-2.3-0.4c-0.9,0-1.7,0.2-2.4,0.5s-1.3,0.8-1.8,1.3c-0.5,0.6-0.9,1.2-1.1,2c-0.3,0.8-0.4,1.6-0.4,2.5V316h-2.3
		v-18.5h2.3V297.6z"/>
	<path class="st2" d="M253,290.5v3.6h-2.3v-3.6H253z M253,297.6V316h-2.3v-18.5h2.3V297.6z"/>
	<path class="st2" d="M268.6,300.1c-0.8-0.8-2-1.2-3.5-1.2c-1.1,0-2,0.2-2.8,0.7s-1.5,1-2,1.8c-0.5,0.7-0.9,1.6-1.2,2.5
		c-0.3,0.9-0.4,1.9-0.4,2.9s0.1,1.9,0.4,2.9c0.3,0.9,0.7,1.8,1.2,2.5s1.2,1.3,2,1.8s1.8,0.7,2.8,0.7c0.7,0,1.3-0.1,2-0.4
		c0.6-0.3,1.2-0.6,1.6-1.1c0.5-0.5,0.9-1,1.2-1.7c0.3-0.6,0.5-1.3,0.6-2.1h2.3c-0.3,2.2-1.1,4-2.5,5.2c-1.3,1.3-3.1,1.9-5.2,1.9
		c-1.4,0-2.7-0.3-3.7-0.8c-1.1-0.5-2-1.2-2.7-2.1s-1.3-1.9-1.7-3.1c-0.4-1.2-0.6-2.4-0.6-3.8c0-1.3,0.2-2.6,0.6-3.8
		c0.4-1.2,0.9-2.2,1.7-3.1c0.7-0.9,1.7-1.6,2.7-2.1c1.1-0.5,2.3-0.8,3.7-0.8c2,0,3.7,0.5,5,1.6c1.4,1,2.2,2.6,2.5,4.8h-2.3
		C270,302,269.5,300.9,268.6,300.1z"/>
</g>
<linearGradient id="SVGID_1_" gradientUnits="userSpaceOnUse" x1="4.8737" y1="101.4946" x2="364.8737" y2="379.4944" gradientTransform="matrix(1 0 0 -1 0 352)">
	<stop  offset="0" style="stop-color:#4AC7B3"/>
	<stop  offset="1" style="stop-color:#0091FC"/>
</linearGradient>
<path class="st3" d="M201.8,38.9c-3.2,1-17.4,2.1-18.9,2.1c-14.5,0-30.6-2.2-40.8-4.2c-13.9-2.8-27.9,1.2-38.5,10.8
	c-9.9,9-14.3,21.7-14,34.1c0.8,31.2,12,62.8,21,98.6c2.6,10.5,6.6,20,13.9,25.1c5.8,4.1,13.3,5.3,22.6,1.9
	c11.5-4.2,26.3-14.4,36-21.8c11.4,16.2,22.1,24,32.5,23.7c16.7-0.4,22.7-16.7,25.7-28.9c6.8-27.1,18.5-71.6,21-98.6
	C265,52.4,234.6,28.5,201.8,38.9z M169.8,180.7c-3.2,2.3-12.5,9.2-20.4,13.3c-10.6,5.5-17.9,3.3-21.1-1c-2.2-2.9-4.5-7.7-6.4-15.6
	c-5.1-20.4-14.5-50.9-18.6-75.4c-2.4-14.1-2-19.1-2.1-21.3c-0.2-8.9,2.9-18,10.2-24.6c7.8-7.1,18.2-10,28.4-8
	c9.2,1.8,23,3.8,36.4,4.3c-10.2,7.2-15.9,11.8-27.4,8.8c-3.1-0.8-6.3,1.1-7.1,4.2s1.1,6.3,4.2,7.1c28,7.2,31.4-16.1,67.6-24.2
	c16.6-1.7,30.8,7.1,35.3,19.5C261.2,102,201.8,157.9,169.8,180.7z M229.9,177.4c-7.1,28.5-21,24.7-37.8,0.8
	c18.7-15.3,38.4-35,52.1-55.1C239.6,142.4,233.7,162.3,229.9,177.4z"/>
</svg>
