<?xml version="1.0" encoding="utf-8"?>
<!-- Generator: Adobe Illustrator 23.0.1, SVG Export Plug-In . SVG Version: 6.00 Build 0)  -->
<svg version="1.1" id="Capa_1" xmlns="http://www.w3.org/2000/svg" xmlns:xlink="http://www.w3.org/1999/xlink" x="0px" y="0px"
	 viewBox="0 0 200 200" style="enable-background:new 0 0 200 200;" xml:space="preserve">
<style type="text/css">
	.st0{fill:#C0C0C0;}
</style>
<g>
	<path class="st0" d="M36.9,120.6c-1.3-3.4-2.7-6.7-4.5-9.8c-4.3-7.6-9.8-14.4-16.5-19.9l-0.5-0.4L24,63.8l0.7-0.1
		c12.4-0.9,24.3-5,34.6-11.9l0.8-0.6l13.1,18.1l-0.7,0.6c-3.6,3-6.7,6.6-9.2,10.5c2.1-1.1,4.5-1.7,6.9-1.7c7.9,0,14.6,6.5,14.7,14.4
		v0.2c0,8.1-6.6,14.7-14.7,14.7c-5.4,0-10.5-3-13-7.8c-0.1-0.1-0.2-0.4-0.3-0.5c0,0.3-0.1,0.6-0.1,0.9v0.1c-0.1,0.8-0.1,1.5-0.1,2.3
		c0,3.5,0.4,7.2,1.3,10.6l0.3,0.9l-21,7L36.9,120.6z"/>
	<path class="st0" d="M39,163l0.1-0.7c1.4-5.6,2.1-11.3,2.1-17.2c0-6.6-0.9-13.1-2.7-19.2l-0.3-0.9l21.1-6.9l0.4,0.9
		c1.7,4.3,4,8.3,7.1,11.8c-0.1-0.8-0.2-1.7-0.2-2.5c0-8.1,6.6-14.7,14.7-14.7S96,120.3,96,128.4c0,7.4-5.6,13.6-12.8,14.6
		c4.3,1.8,9,2.9,13.8,3.2l0.9,0.1v22l-0.9,0.1c-12.4,0.4-24.5,4.2-34.9,10.7l-0.6,0.4L39,163z"/>
	<path class="st0" d="M137.4,178.9c-10.5-6.6-22.5-10.3-34.8-10.7l-0.9-0.1v-22l0.9-0.1c4.8-0.3,9.5-1.4,13.9-3.2
		c-7.3-0.9-12.9-7.1-12.9-14.6c0-8.1,6.6-14.7,14.7-14.7s14.7,6.6,14.7,14.7c0,0.9-0.1,1.8-0.3,2.7c3-3.5,5.5-7.6,7.2-11.9l0.4-0.9
		l21,6.9l-0.3,0.9c-0.7,2.6-1.3,5.3-1.7,7.9c-0.6,3.7-0.9,7.4-0.9,11.1c0,5.8,0.7,11.6,2.2,17.3l0.1,0.7L138,179.3L137.4,178.9z"/>
	<path class="st0" d="M141.3,114.6l0.3-0.9c0.9-3.5,1.3-7.1,1.3-10.7c0-1.1-0.1-2.2-0.1-3.3c-2.4,5-7.4,8.4-13.3,8.4
		c-8.1,0-14.7-6.6-14.7-14.7c0-1.3,0.1-2.3,0.4-3.3c1.5-6.7,7.4-11.3,14.3-11.3c2.5,0,4.9,0.6,7.1,1.8c-2.5-4-5.6-7.6-9.3-10.6
		l-0.7-0.6l13.1-18.1l0.8,0.6c10.2,6.9,22.1,11.1,34.5,11.9l0.7,0.1l8.6,26.5l-0.5,0.4c-3.5,3-6.7,6.2-9.6,9.8
		c-4.9,6.1-8.8,12.9-11.4,20.2l-0.4,0.9L141.3,114.6z"/>
	<path class="st0" d="M99.9,86.5c-8.1,0-14.7-6.6-14.7-14.7c0-4,1.6-7.7,4.3-10.4c-4.4,1.1-8.6,2.9-12.5,5.4l-0.8,0.5L63.1,49.1
		l0.8-0.6c9.5-7.6,17.1-17.6,21.6-28.9l0.3-0.6h28.3l0.3,0.6c4.6,11.3,12.1,21.3,21.7,28.9l0.8,0.6l-13.1,18.2l-0.8-0.5
		c-3.9-2.5-8.1-4.3-12.6-5.3c2.7,2.7,4.3,6.4,4.3,10.4C114.5,79.9,108,86.5,99.9,86.5z"/>
</g>
</svg>
