<?xml version="1.0" encoding="utf-8"?>
<!-- Generator: Adobe Illustrator 23.0.1, SVG Export Plug-In . SVG Version: 6.00 Build 0)  -->
<svg version="1.1" id="Capa_1" xmlns="http://www.w3.org/2000/svg" xmlns:xlink="http://www.w3.org/1999/xlink" x="0px" y="0px"
	 viewBox="0 0 256 256" style="enable-background:new 0 0 256 256;" xml:space="preserve">
<style type="text/css">
	.st0{fill:#F8F8F8;}
	.st1{fill:#C0C0C0;}
</style>
<path class="st0" d="M256,128c0,38.6-17,73.1-44,96.6c-1.8,1.6-3.7,3.2-5.7,4.7C184.7,246,157.5,256,128,256
	c-31.2,0-59.9-11.2-82.1-29.8c-2-1.6-3.9-3.3-5.7-5.1C15.5,197.8,0,164.7,0,128C0,57.3,57.3,0,128,0S256,57.3,256,128z"/>
<path class="st1" d="M212,224.6c-1.8,1.6-3.7,3.2-5.7,4.7C184.7,246,157.5,256,128,256c-31.2,0-59.9-11.2-82.1-29.8
	c-0.7-0.6-1.3-1.2-1.9-1.8c0.4-10.9,4.6-72.6,44-72.9c5.4,5.8,11.7,10.4,18.4,13.6s14,4.9,21.7,4.9c15.2,0,29.2-7,40-18.5
	C207.6,151.8,211.6,214.2,212,224.6z"/>
<ellipse class="st1" cx="128" cy="100.4" rx="46.3" ry="49.7"/>
</svg>
